RobotoExtremoWGL-Regular.ufo
<glyph name="dollar" format="2">
  <advance width="1024"/>
  <unicode hex="0024"/>
  <outline>
    <contour>
      <point x="21" y="410" type="line" smooth="yes"/>
      <point x="21" y="219"/>
      <point x="289" y="-3"/>
      <point x="511" y="-3" type="qcurve" smooth="yes"/>
      <point x="732" y="-3"/>
      <point x="991" y="219"/>
      <point x="991" y="393" type="qcurve" smooth="yes"/>
      <point x="991" y="566"/>
      <point x="794" y="757"/>
      <point x="579" y="820" type="qcurve" smooth="yes"/>
      <point x="363" y="885"/>
      <point x="224" y="990"/>
      <point x="224" y="1077" type="qcurve" smooth="yes"/>
      <point x="224" y="1183"/>
      <point x="359" y="1300"/>
      <point x="501" y="1300" type="qcurve" smooth="yes"/>
      <point x="644" y="1300"/>
      <point x="788" y="1164"/>
      <point x="788" y="1052" type="qcurve" smooth="yes"/>
      <point x="788" y="1040" type="line"/>
      <point x="965" y="1040" type="line"/>
      <point x="965" y="1052" type="line" smooth="yes"/>
      <point x="965" y="1222"/>
      <point x="714" y="1459"/>
      <point x="501" y="1459" type="qcurve" smooth="yes"/>
      <point x="289" y="1459"/>
      <point x="49" y="1241"/>
      <point x="49" y="1077" type="qcurve" smooth="yes"/>
      <point x="49" y="913"/>
      <point x="232" y="734"/>
      <point x="451" y="668" type="qcurve" smooth="yes"/>
      <point x="671" y="602"/>
      <point x="816" y="489"/>
      <point x="816" y="393" type="qcurve" smooth="yes"/>
      <point x="816" y="286"/>
      <point x="658" y="156"/>
      <point x="511" y="156" type="qcurve" smooth="yes"/>
      <point x="363" y="156"/>
      <point x="198" y="282"/>
      <point x="198" y="410" type="qcurve" smooth="yes"/>
      <point x="198" y="422" type="line"/>
      <point x="21" y="422" type="line"/>
    </contour>
    <contour>
      <point x="436" y="-150" type="line"/>
      <point x="586" y="-150" type="line"/>
      <point x="586" y="90" type="line"/>
      <point x="572" y="100" type="line"/>
      <point x="572" y="728" type="line"/>
      <point x="436" y="728" type="line"/>
    </contour>
    <contour>
      <point x="450" y="728" type="line"/>
      <point x="586" y="728" type="line"/>
      <point x="586" y="1606" type="line"/>
      <point x="436" y="1606" type="line"/>
      <point x="436" y="1366" type="line"/>
      <point x="450" y="1356" type="line"/>
    </contour>
  </outline>
</glyph>
<glyph name="E" format="2">
  <advance width="1162"/>
  <unicode hex="0045"/>
  <anchor x="626" y="1556" name="top"/>
  <outline>
    <contour>
      <point x="170" y="0" type="line"/>
      <point x="1094" y="0" type="line"/>
      <point x="1094" y="158" type="line"/>
      <point x="362" y="158" type="line"/>
      <point x="362" y="672" type="line"/>
      <point x="992" y="672" type="line"/>
      <point x="992" y="830" type="line"/>
      <point x="362" y="830" type="line"/>
      <point x="362" y="1298" type="line"/>
      <point x="1084" y="1298" type="line"/>
      <point x="1084" y="1456" type="line"/>
      <point x="170" y="1456" type="line"/>
    </contour>
  </outline>
</glyph>
<glyph name="grave" format="2">
  <advance width="1024"/>
  <unicode hex="0060"/>
  <anchor x="512" y="1052" name="_top"/>
  <outline>
    <contour>
      <point x="471" y="1198" type="line"/>
      <point x="620" y="1198" type="line"/>
      <point x="426" y="1492" type="line"/>
      <point x="203" y="1492" type="line"/>
    </contour>
  </outline>
</glyph>
<glyph name="exclamdown" format="2">
  <advance width="500"/>
  <unicode hex="00A1"/>
  <outline>
    <contour>
      <point x="157" y="-361" type="line"/>
      <point x="352" y="-361" type="line"/>
      <point x="338" y="684" type="line"/>
      <point x="171" y="684" type="line"/>
    </contour>
    <contour>
      <point x="358" y="996" type="qcurve" smooth="yes"/>
      <point x="358.0" y="1040.0298507462687"/>
      <point x="302.7313432835821" y="1101.0"/>
      <point x="249" y="1101" type="qcurve" smooth="yes"/>
      <point x="196.01492537313433" y="1101.0"/>
      <point x="139.0" y="1040.0298507462687"/>
      <point x="139" y="996" type="qcurve" smooth="yes"/>
      <point x="139.0" y="951.9701492537314"/>
      <point x="196.01492537313433" y="890.0"/>
      <point x="249" y="890" type="qcurve" smooth="yes"/>
      <point x="302.7313432835821" y="890.0"/>
      <point x="358.0" y="951.9701492537314"/>
    </contour>
  </outline>
</glyph>
<glyph name="cent" format="2">
  <advance width="1121"/>
  <unicode hex="00A2"/>
  <outline>
    <contour>
      <point x="670" y="1318" type="line"/>
      <point x="484" y="1318" type="line"/>
      <point x="484" y="1030" type="line"/>
      <point x="670" y="1030" type="line"/>
    </contour>
    <contour>
      <point x="670" y="42" type="line"/>
      <point x="484" y="42" type="line"/>
      <point x="484" y="-245" type="line"/>
      <point x="670" y="-245" type="line"/>
    </contour>
    <contour>
      <point x="587" y="132" type="qcurve" smooth="yes"/>
      <point x="415.35820895522386" y="132.0"/>
      <point x="291.0" y="378.2089552238806"/>
      <point x="291" y="520" type="qcurve" smooth="yes"/>
      <point x="291" y="562" type="line" smooth="yes"/>
      <point x="291.0" y="702.2985074626865"/>
      <point x="416.85074626865674" y="950.0"/>
      <point x="587" y="950" type="qcurve"/>
      <point x="697.4477611940298" y="950.0"/>
      <point x="834.5373134328358" y="809.2537313432836"/>
      <point x="842" y="710" type="qcurve"/>
      <point x="1018" y="710" type="line"/>
      <point x="1010.5373134328358" y="876.4179104477612"/>
      <point x="775.8059701492537" y="1102.0"/>
      <point x="587" y="1102" type="qcurve" smooth="yes"/>
      <point x="344.4626865671642" y="1102.0"/>
      <point x="105.0" y="778.4179104477612"/>
      <point x="105" y="562" type="qcurve" smooth="yes"/>
      <point x="105" y="520" type="line" smooth="yes"/>
      <point x="105.0" y="303.5820895522388"/>
      <point x="343.7164179104478" y="-20.0"/>
      <point x="587" y="-20" type="qcurve"/>
      <point x="757.8955223880597" y="-20.0"/>
      <point x="1009.7910447761194" y="197.97014925373136"/>
      <point x="1018" y="342" type="qcurve"/>
      <point x="842" y="342" type="line"/>
      <point x="834.5373134328358" y="250.95522388059703"/>
      <point x="685.5074626865671" y="132.0"/>
    </contour>
  </outline>
</glyph>
<glyph name="sterling" format="2">
  <advance width="1197"/>
  <unicode hex="00A3"/>
  <outline>
    <contour>
      <point x="1099" y="0" type="line"/>
      <point x="1099" y="160" type="line"/>
      <point x="382" y="160" type="line"/>
      <point x="452" y="201"/>
      <point x="508" y="334"/>
      <point x="504" y="402" type="qcurve" smooth="yes"/>
      <point x="463" y="1039" type="line" smooth="yes"/>
      <point x="454" y="1173"/>
      <point x="583" y="1319"/>
      <point x="677" y="1319" type="qcurve" smooth="yes"/>
      <point x="772" y="1319"/>
      <point x="889" y="1219"/>
      <point x="889" y="1103" type="qcurve" smooth="yes"/>
      <point x="889" y="1087" type="line"/>
      <point x="1081" y="1087" type="line"/>
      <point x="1081" y="1103" type="line" smooth="yes"/>
      <point x="1081" y="1270"/>
      <point x="868" y="1476"/>
      <point x="669" y="1476" type="qcurve" smooth="yes"/>
      <point x="488" y="1476"/>
      <point x="262" y="1245"/>
      <point x="275" y="1039" type="qcurve" smooth="yes"/>
      <point x="316" y="401" type="line" smooth="yes"/>
      <point x="321" y="317"/>
      <point x="229" y="160"/>
      <point x="152" y="160" type="qcurve" smooth="yes"/>
      <point x="96" y="160" type="line"/>
      <point x="96" y="0" type="line"/>
    </contour>
    <contour>
      <point x="784" y="623" type="line"/>
      <point x="784" y="770" type="line"/>
      <point x="112" y="770" type="line"/>
      <point x="112" y="623" type="line"/>
    </contour>
  </outline>
</glyph>
<glyph name="yen" format="2">
  <advance width="1176"/>
  <unicode hex="00A5"/>
  <anchor x="615" y="1432" name="top"/>
  <outline>
    <contour>
      <point x="133" y="311" type="line"/>
      <point x="1043" y="311" type="line"/>
      <point x="1043" y="470" type="line"/>
      <point x="133" y="470" type="line"/>
    </contour>
    <contour>
      <point x="133" y="616" type="line"/>
      <point x="1043" y="616" type="line"/>
      <point x="1043" y="775" type="line"/>
      <point x="133" y="775" type="line"/>
    </contour>
    <contour>
      <point x="492" y="0" type="line"/>
      <point x="676" y="0" type="line"/>
      <point x="676" y="548" type="line"/>
      <point x="1153" y="1456" type="line"/>
      <point x="952" y="1456" type="line"/>
      <point x="650" y="849" type="line" smooth="yes"/>
      <point x="635" y="819"/>
      <point x="607" y="759"/>
      <point x="596" y="729" type="qcurve"/>
      <point x="576" y="729" type="line"/>
      <point x="565" y="759"/>
      <point x="537" y="819"/>
      <point x="522" y="849" type="qcurve" smooth="yes"/>
      <point x="224" y="1456" type="line"/>
      <point x="15" y="1456" type="line"/>
      <point x="492" y="548" type="line"/>
    </contour>
  </outline>
</glyph>
<glyph name="section" format="2">
  <advance width="1256"/>
  <unicode hex="00A7"/>
  <guideline x="0.0" y="1658.0" angle="0.0" identifier="QzZ5gIiCyn"/>
  <guideline x="0.0" y="578.0" angle="0.0" identifier="9Hxjf2sdFw"/>
  <outline>
    <contour>
      <point x="699" y="108" type="line"/>
      <point x="900.4925373134329" y="108.0"/>
      <point x="1145.0" y="279.5074626865672"/>
      <point x="1145" y="431" type="qcurve"/>
      <point x="1145.0" y="616.820895522388"/>
      <point x="898.3880597014925" y="793.0597014925373"/>
      <point x="676" y="855" type="qcurve" smooth="yes"/>
      <point x="466.2985074626866" y="913.2089552238806"/>
      <point x="327.0" y="1013.0"/>
      <point x="327" y="1113" type="qcurve"/>
      <point x="327.0" y="1199.5671641791046"/>
      <point x="474.2835820895523" y="1325.0"/>
      <point x="631" y="1325" type="qcurve" smooth="yes"/>
      <point x="778.7611940298507" y="1325.0"/>
      <point x="937.0" y="1160.9253731343283"/>
      <point x="937" y="1046" type="qcurve"/>
      <point x="1122" y="1046" type="line"/>
      <point x="1122.0" y="1253.4626865671642"/>
      <point x="858.6119402985074" y="1477.0"/>
      <point x="631" y="1477" type="qcurve" smooth="yes"/>
      <point x="408.6119402985075" y="1477.0"/>
      <point x="142.0" y="1275.9253731343283"/>
      <point x="142" y="1111" type="qcurve"/>
      <point x="142.0" y="925.179104477612"/>
      <point x="386.5820895522388" y="749.955223880597"/>
      <point x="603" y="691" type="qcurve" smooth="yes"/>
      <point x="806.7313432835821" y="629.8059701492538"/>
      <point x="960.0" y="521.2835820895523"/>
      <point x="960" y="428" type="qcurve"/>
      <point x="960.0" y="340.6865671641791"/>
      <point x="822.1343283582089" y="226.0"/>
      <point x="699" y="226" type="qcurve"/>
    </contour>
    <contour>
      <point x="525" y="874" type="line"/>
      <point x="330.22388059701495" y="874.0"/>
      <point x="97.0" y="697.2686567164179"/>
      <point x="97" y="551" type="qcurve" smooth="yes"/>
      <point x="97.0" y="365.179104477612"/>
      <point x="346.089552238806" y="184.955223880597"/>
      <point x="564" y="126" type="qcurve"/>
      <point x="765.4925373134329" y="65.55223880597015"/>
      <point x="915.0" y="-38.462686567164184"/>
      <point x="915" y="-131" type="qcurve" smooth="yes"/>
      <point x="915.0" y="-220.55223880597015"/>
      <point x="756.2835820895523" y="-343.0"/>
      <point x="613" y="-343" type="qcurve" smooth="yes"/>
      <point x="495.089552238806" y="-343.0"/>
      <point x="276.0" y="-220.2089552238806"/>
      <point x="276" y="-62" type="qcurve"/>
      <point x="91" y="-64" type="line"/>
      <point x="91.0" y="-305.7910447761194"/>
      <point x="421.2089552238806" y="-495.0"/>
      <point x="613" y="-495" type="qcurve" smooth="yes"/>
      <point x="833.1492537313433" y="-495.0"/>
      <point x="1100.0" y="-302.1343283582089"/>
      <point x="1100" y="-129" type="qcurve" smooth="yes"/>
      <point x="1100.0" y="56.82089552238804"/>
      <point x="857.1492537313433" y="228.05970149253733"/>
      <point x="637" y="290" type="qcurve" smooth="yes"/>
      <point x="423.5671641791045" y="348.95522388059703"/>
      <point x="282.0" y="453.0"/>
      <point x="282" y="553" type="qcurve" smooth="yes"/>
      <point x="282.0" y="638.820895522388"/>
      <point x="400.3731343283582" y="753.0"/>
      <point x="525" y="753" type="qcurve"/>
    </contour>
  </outline>
</glyph>
<glyph name="dieresis" format="2">
  <advance width="857"/>
  <unicode hex="00A8"/>
  <anchor x="423" y="1577" name="mkmktop_acc"/>
  <outline>
    <contour>
      <point x="101" y="1371" type="qcurve" smooth="yes"/>
      <point x="101.0" y="1327.7164179104477"/>
      <point x="157.01492537313433" y="1267.0"/>
      <point x="210" y="1267" type="qcurve" smooth="yes"/>
      <point x="263.7313432835821" y="1267.0"/>
      <point x="320.0" y="1327.7164179104477"/>
      <point x="320" y="1371" type="qcurve" smooth="yes"/>
      <point x="320.0" y="1415.7761194029852"/>
      <point x="263.7313432835821" y="1478.0"/>
      <point x="210" y="1478" type="qcurve" smooth="yes"/>
      <point x="157.01492537313433" y="1478.0"/>
      <point x="101.0" y="1415.7761194029852"/>
    </contour>
    <contour>
      <point x="532" y="1369" type="qcurve" smooth="yes"/>
      <point x="532.0" y="1325.7164179104477"/>
      <point x="587.2686567164179" y="1265.0"/>
      <point x="641" y="1265" type="qcurve" smooth="yes"/>
      <point x="693.9850746268656" y="1265.0"/>
      <point x="751.0" y="1325.7164179104477"/>
      <point x="751" y="1369" type="qcurve" smooth="yes"/>
      <point x="751.0" y="1413.7761194029852"/>
      <point x="693.9850746268656" y="1476.0"/>
      <point x="641" y="1476" type="qcurve" smooth="yes"/>
      <point x="587.2686567164179" y="1476.0"/>
      <point x="532.0" y="1413.7761194029852"/>
    </contour>
  </outline>
</glyph>
<glyph name="copyright" format="2">
  <advance width="1609"/>
  <unicode hex="00A9"/>
  <guideline x="0.0" y="901.0" angle="0.0" identifier="0Pjz0qKr8z"/>
  <guideline x="0.0" y="555.0" angle="0.0" identifier="sJo8BlDiJ7"/>
  <outline>
    <contour>
      <point x="974" y="598" type="line"/>
      <point x="974.0" y="498.0"/>
      <point x="879.044776119403" y="412.0"/>
      <point x="788" y="412" type="qcurve" smooth="yes"/>
      <point x="689.4925373134329" y="412.0"/>
      <point x="586.0" y="557.5671641791045"/>
      <point x="586" y="671" type="qcurve" smooth="yes"/>
      <point x="586" y="787" type="line" smooth="yes"/>
      <point x="586.0" y="898.9402985074627"/>
      <point x="689.4925373134329" y="1045.0"/>
      <point x="788" y="1045" type="qcurve" smooth="yes"/>
      <point x="879.044776119403" y="1045.0"/>
      <point x="975.0" y="958.5074626865671"/>
      <point x="975" y="860" type="qcurve"/>
      <point x="1121" y="860" type="line"/>
      <point x="1121.0" y="1015.9701492537313"/>
      <point x="940.2388059701492" y="1173.0"/>
      <point x="788" y="1173" type="qcurve" smooth="yes"/>
      <point x="629.7910447761194" y="1173.0"/>
      <point x="442.0" y="956.8955223880597"/>
      <point x="442" y="786" type="qcurve"/>
      <point x="442" y="671" type="line"/>
      <point x="442.0" y="499.35820895522386"/>
      <point x="629.7910447761194" y="284.0"/>
      <point x="788" y="284" type="qcurve" smooth="yes"/>
      <point x="940.2388059701492" y="284.0"/>
      <point x="1120.0" y="441.2835820895523"/>
      <point x="1120" y="598" type="qcurve"/>
    </contour>
    <contour>
      <point x="207" y="729" type="qcurve"/>
      <point x="207.0" y="994.6716417910447"/>
      <point x="556.4776119402985" y="1357.0"/>
      <point x="802" y="1357" type="qcurve" smooth="yes"/>
      <point x="1046.0298507462687" y="1357.0"/>
      <point x="1395.0" y="994.6716417910447"/>
      <point x="1395" y="729" type="qcurve" smooth="yes"/>
      <point x="1395.0" y="463.32835820895525"/>
      <point x="1046.0298507462687" y="98.0"/>
      <point x="802" y="98" type="qcurve" smooth="yes"/>
      <point x="556.4776119402985" y="98.0"/>
      <point x="207.0" y="463.32835820895525"/>
    </contour>
    <contour>
      <point x="92" y="729" type="qcurve"/>
      <point x="92.0" y="413.32835820895525"/>
      <point x="509.4626865671642" y="-21.0"/>
      <point x="802" y="-21" type="qcurve" smooth="yes"/>
      <point x="1093.7910447761194" y="-21.0"/>
      <point x="1511.0" y="413.32835820895525"/>
      <point x="1511" y="729" type="qcurve" smooth="yes"/>
      <point x="1511.0" y="1044.6716417910447"/>
      <point x="1093.7910447761194" y="1476.0"/>
      <point x="802" y="1476" type="qcurve" smooth="yes"/>
      <point x="509.4626865671642" y="1476.0"/>
      <point x="92.0" y="1044.6716417910447"/>
    </contour>
  </outline>
</glyph>
<glyph name="ordfeminine" format="2">
  <advance width="916"/>
  <unicode hex="00AA"/>
  <guideline x="0.0" y="1681.0" angle="0.0" identifier="3CJlALCfkl"/>
  <guideline x="0.0" y="909.0" angle="0.0" identifier="Zdl6NZVQAy"/>
  <outline>
    <contour>
      <point x="595" y="862" type="line"/>
      <point x="595.0" y="820.955223880597"/>
      <point x="607.8059701492538" y="741.0746268656717"/>
      <point x="619" y="706" type="qcurve"/>
      <point x="784" y="706" type="line"/>
      <point x="769.820895522388" y="749.2835820895523"/>
      <point x="758.0" y="838.4925373134329"/>
      <point x="758" y="887" type="qcurve" smooth="yes"/>
      <point x="758" y="1201" type="line"/>
      <point x="758.0" y="1337.5671641791046"/>
      <point x="599.3582089552239" y="1477.0"/>
      <point x="471" y="1477" type="qcurve" smooth="yes"/>
      <point x="331.44776119402985" y="1477.0"/>
      <point x="162.0" y="1344.7462686567164"/>
      <point x="162" y="1244" type="qcurve"/>
      <point x="323" y="1231" type="line"/>
      <point x="323.0" y="1282.4925373134329"/>
      <point x="402.34328358208955" y="1336.0"/>
      <point x="471" y="1336" type="qcurve" smooth="yes"/>
      <point x="532.9402985074627" y="1336.0"/>
      <point x="595.0" y="1266.1791044776119"/>
      <point x="595" y="1202" type="qcurve"/>
    </contour>
    <contour>
      <point x="635" y="1149" type="line"/>
      <point x="486" y="1149" type="line"/>
      <point x="316.5970149253732" y="1149.0"/>
      <point x="147.0" y="1027.7014925373135"/>
      <point x="147" y="918" type="qcurve" smooth="yes"/>
      <point x="147.0" y="815.7611940298508"/>
      <point x="276.5970149253732" y="692.0"/>
      <point x="396" y="692" type="qcurve" smooth="yes"/>
      <point x="497.4925373134328" y="692.0"/>
      <point x="618.6119402985074" y="788.4925373134329"/>
      <point x="641" y="837" type="qcurve"/>
      <point x="623" y="949" type="line"/>
      <point x="623.0" y="910.9402985074627"/>
      <point x="499.17910447761193" y="829.0"/>
      <point x="435" y="829" type="qcurve" smooth="yes"/>
      <point x="370.82089552238807" y="829.0"/>
      <point x="310.0" y="878.7164179104477"/>
      <point x="310" y="922" type="qcurve" smooth="yes"/>
      <point x="310.0" y="969.0149253731344"/>
      <point x="396.70149253731347" y="1038.0"/>
      <point x="487" y="1038" type="qcurve"/>
      <point x="636" y="1038" type="line"/>
    </contour>
  </outline>
</glyph>
<glyph name="registered" format="2">
  <advance width="1610"/>
  <unicode hex="00AE"/>
  <outline>
    <contour>
      <point x="827" y="655" type="line"/>
      <point x="856.1044776119403" y="655.0"/>
      <point x="855.8805970149253" y="660.3283582089553"/>
      <point x="882" y="676" type="qcurve" smooth="yes"/>
      <point x="884.9850746268656" y="676.0"/>
      <point x="892.0149253731344" y="689.0"/>
      <point x="895" y="689" type="qcurve" smooth="yes"/>
      <point x="997.9850746268656" y="717.3582089552239"/>
      <point x="1110.0" y="828.6567164179105"/>
      <point x="1110" y="910" type="qcurve"/>
      <point x="1110.0" y="1037.6119402985075"/>
      <point x="936.0149253731342" y="1165.0"/>
      <point x="789" y="1165" type="qcurve"/>
      <point x="512" y="1165" type="line"/>
      <point x="512" y="317" type="line"/>
      <point x="653" y="317" type="line"/>
      <point x="653" y="1038" type="line"/>
      <point x="789" y="1038" type="line"/>
      <point x="889.7462686567164" y="1038.0"/>
      <point x="970.0" y="977.8805970149253"/>
      <point x="970" y="904" type="qcurve"/>
      <point x="970.0" y="845.7910447761194"/>
      <point x="872.6865671641791" y="784.4925373134329"/>
      <point x="810" y="783" type="qcurve"/>
      <point x="607" y="783" type="line"/>
      <point x="609" y="655" type="line"/>
    </contour>
    <contour>
      <point x="817" y="655" type="line"/>
      <point x="896.8507462686567" y="655.0"/>
      <point x="964.0" y="585.3880597014926"/>
      <point x="964" y="513" type="qcurve"/>
      <point x="964" y="461" type="line"/>
      <point x="964.0" y="439.35820895522386"/>
      <point x="967.2985074626865" y="342.3731343283582"/>
      <point x="977" y="317" type="qcurve"/>
      <point x="1122" y="317" type="line"/>
      <point x="1122" y="333" type="line"/>
      <point x="1113.044776119403" y="355.3880597014925"/>
      <point x="1105.0" y="422.6865671641791"/>
      <point x="1105" y="460" type="qcurve"/>
      <point x="1105" y="514" type="line"/>
      <point x="1105.0" y="613.2537313432836"/>
      <point x="990.7313432835821" y="745.0"/>
      <point x="837" y="745" type="qcurve"/>
    </contour>
    <contour>
      <point x="206" y="729" type="qcurve" smooth="yes"/>
      <point x="206.0" y="994.6716417910447"/>
      <point x="555.4776119402985" y="1357.0"/>
      <point x="801" y="1357" type="qcurve" smooth="yes"/>
      <point x="1045.0298507462687" y="1357.0"/>
      <point x="1394.0" y="994.6716417910447"/>
      <point x="1394" y="729" type="qcurve" smooth="yes"/>
      <point x="1394.0" y="463.32835820895525"/>
      <point x="1045.0298507462687" y="98.0"/>
      <point x="801" y="98" type="qcurve" smooth="yes"/>
      <point x="555.4776119402985" y="98.0"/>
      <point x="206.0" y="463.32835820895525"/>
    </contour>
    <contour>
      <point x="91" y="729" type="qcurve" smooth="yes"/>
      <point x="91.0" y="413.32835820895525"/>
      <point x="508.4626865671642" y="-21.0"/>
      <point x="801" y="-21" type="qcurve" smooth="yes"/>
      <point x="1092.7910447761194" y="-21.0"/>
      <point x="1510.0" y="413.32835820895525"/>
      <point x="1510" y="729" type="qcurve" smooth="yes"/>
      <point x="1510.0" y="1044.6716417910447"/>
      <point x="1092.7910447761194" y="1476.0"/>
      <point x="801" y="1476" type="qcurve" smooth="yes"/>
      <point x="508.4626865671642" y="1476.0"/>
      <point x="91.0" y="1044.6716417910447"/>
    </contour>
  </outline>
</glyph>
<glyph name="macron" format="2">
  <advance width="939"/>
  <unicode hex="00AF"/>
  <anchor x="473" y="1577" name="mkmktop_acc"/>
  <outline>
    <contour>
      <point x="814" y="1445" type="line"/>
      <point x="143" y="1445" type="line"/>
      <point x="143" y="1303" type="line"/>
      <point x="814" y="1303" type="line"/>
    </contour>
  </outline>
</glyph>
<glyph name="twosuperior" format="2">
  <advance width="751"/>
  <unicode hex="00B2"/>
  <outline>
    <contour>
      <point x="683.0" y="795.0" type="line"/>
      <point x="285.0" y="795.0" type="line"/>
      <point x="460.0" y="941.0" type="line" smooth="yes"/>
      <point x="547.3134328358209" y="1020.1044776119403"/>
      <point x="652.0" y="1151.1492537313434"/>
      <point x="652.0" y="1231.0" type="qcurve" smooth="yes"/>
      <point x="652.0" y="1339.2089552238806"/>
      <point x="499.5820895522388" y="1467.0"/>
      <point x="366.0" y="1467.0" type="qcurve" smooth="yes"/>
      <point x="225.70149253731344" y="1467.0"/>
      <point x="66.0" y="1312.7164179104477"/>
      <point x="66.0" y="1206.0" type="qcurve"/>
      <point x="224.0" y="1206.0" type="line"/>
      <point x="224.0" y="1262.7164179104477"/>
      <point x="295.3731343283582" y="1339.0"/>
      <point x="370.0" y="1339.0" type="qcurve" smooth="yes"/>
      <point x="428.95522388059703" y="1339.0"/>
      <point x="493.0" y="1276.7611940298507"/>
      <point x="493.0" y="1229.0" type="qcurve" smooth="yes"/>
      <point x="493.0" y="1196.1641791044776"/>
      <point x="440.1641791044776" y="1107.9402985074628"/>
      <point x="373.0" y="1046.0" type="qcurve" smooth="yes"/>
      <point x="85.0" y="775.0" type="line"/>
      <point x="85.0" y="667.0" type="line"/>
      <point x="683.0" y="667.0" type="line"/>
    </contour>
  </outline>
</glyph>
<glyph name="threesuperior" format="2">
  <advance width="751"/>
  <unicode hex="00B3"/>
  <outline>
    <contour>
      <point x="266.0" y="1126.0" type="line"/>
      <point x="266.0" y="1048.0" type="line"/>
      <point x="377.0" y="1048.0" type="line"/>
      <point x="508.34328358208955" y="1048.0"/>
      <point x="653.0" y="1163.8955223880598"/>
      <point x="653.0" y="1243.0" type="qcurve"/>
      <point x="653.0" y="1351.955223880597"/>
      <point x="489.85074626865674" y="1467.0"/>
      <point x="360.0" y="1467.0" type="qcurve" smooth="yes"/>
      <point x="240.59701492537314" y="1467.0"/>
      <point x="74.0" y="1347.4925373134329"/>
      <point x="74.0" y="1246.0" type="qcurve"/>
      <point x="231.0" y="1246.0" type="line"/>
      <point x="231.0" y="1288.5373134328358"/>
      <point x="306.2835820895522" y="1339.0"/>
      <point x="363.0" y="1339.0" type="qcurve" smooth="yes"/>
      <point x="431.65671641791045" y="1339.0"/>
      <point x="496.0" y="1279.0298507462687"/>
      <point x="496.0" y="1235.0" type="qcurve"/>
      <point x="496.0" y="1187.2388059701493"/>
      <point x="422.3880597014925" y="1126.0"/>
      <point x="350.0" y="1126.0" type="qcurve" smooth="yes"/>
    </contour>
    <contour>
      <point x="266.0" y="1011.0" type="line"/>
      <point x="350.0" y="1011.0" type="line" smooth="yes"/>
      <point x="423.13432835820896" y="1011.0"/>
      <point x="509.0" y="957.6865671641791"/>
      <point x="509.0" y="895.0" type="qcurve" smooth="yes"/>
      <point x="509.0" y="845.7462686567164"/>
      <point x="435.4029850746268" y="784.0"/>
      <point x="366.0" y="784.0" type="qcurve" smooth="yes"/>
      <point x="300.32835820895525" y="784.0"/>
      <point x="220.0" y="845.223880597015"/>
      <point x="220.0" y="890.0" type="qcurve"/>
      <point x="63.0" y="890.0" type="line"/>
      <point x="63.0" y="768.3582089552239"/>
      <point x="248.3134328358209" y="656.0"/>
      <point x="361.0" y="656.0" type="qcurve" smooth="yes"/>
      <point x="490.85074626865674" y="656.0"/>
      <point x="667.0" y="777.2985074626865"/>
      <point x="667.0" y="887.0" type="qcurve" smooth="yes"/>
      <point x="667.0" y="982.5223880597015"/>
      <point x="526.2537313432836" y="1089.0"/>
      <point x="377.0" y="1089.0" type="qcurve" smooth="yes"/>
      <point x="266.0" y="1089.0" type="line"/>
    </contour>
  </outline>
</glyph>
<glyph name="acute" format="2">
  <advance width="1024"/>
  <unicode hex="00B4"/>
  <anchor x="291" y="1197" name="mkmktop_acc"/>
  <outline>
    <contour>
      <point x="373" y="1198" type="line"/>
      <point x="522" y="1198" type="line"/>
      <point x="790" y="1492" type="line"/>
      <point x="567" y="1492" type="line"/>
    </contour>
  </outline>
</glyph>
<glyph name="micro" format="2">
  <advance width="1198"/>
  <unicode hex="00B5"/>
  <outline>
    <contour>
      <point x="-15" y="-317" type="line"/>
      <point x="21" y="-295" type="line"/>
      <point x="60" y="-137"/>
      <point x="121" y="112"/>
      <point x="133" y="181" type="qcurve" smooth="yes"/>
      <point x="245" y="822" type="line"/>
      <point x="103" y="819" type="line"/>
      <point x="105" y="915" type="line"/>
      <point x="334" y="1002" type="line"/>
      <point x="379" y="1002" type="line"/>
      <point x="421" y="923" type="line"/>
      <point x="304" y="312" type="line" smooth="yes"/>
      <point x="288" y="229"/>
      <point x="341" y="167"/>
      <point x="418" y="167" type="qcurve" smooth="yes"/>
      <point x="511" y="167"/>
      <point x="721" y="285"/>
      <point x="782" y="352" type="qcurve"/>
      <point x="883" y="911" type="line"/>
      <point x="852" y="994" type="line"/>
      <point x="1016" y="1021" type="line"/>
      <point x="1058" y="942" type="line"/>
      <point x="941" y="362" type="line"/>
      <point x="915" y="134" type="line"/>
      <point x="1051" y="134" type="line"/>
      <point x="1053" y="47" type="line"/>
      <point x="799" y="-15" type="line"/>
      <point x="757" y="76" type="line"/>
      <point x="765" y="215" type="line"/>
      <point x="688" y="136"/>
      <point x="457" y="23"/>
      <point x="358" y="23" type="qcurve" smooth="yes"/>
      <point x="325" y="23"/>
      <point x="275" y="36"/>
      <point x="250" y="48" type="qcurve"/>
      <point x="193" y="-274" type="line"/>
      <point x="339" y="-282" type="line"/>
      <point x="331" y="-371" type="line"/>
      <point x="8" y="-399" type="line"/>
    </contour>
  </outline>
</glyph>
<glyph name="paragraph" format="2">
  <advance width="1002"/>
  <unicode hex="00B6"/>
  <guideline x="0.0" y="901.0" angle="0.0" identifier="27539Lsr1A"/>
  <guideline x="0.0" y="555.0" angle="0.0" identifier="e34wUdCmXR"/>
  <outline>
    <contour>
      <point x="833" y="0" type="line"/>
      <point x="833" y="1456" type="line"/>
      <point x="560" y="1456" type="line" smooth="yes"/>
      <point x="321.94029850746267" y="1456.0"/>
      <point x="68.0" y="1188.0"/>
      <point x="68" y="988" type="qcurve" smooth="yes"/>
      <point x="68.0" y="786.5074626865671"/>
      <point x="321.94029850746267" y="520.0"/>
      <point x="560" y="520" type="qcurve" smooth="yes"/>
      <point x="647" y="520" type="line"/>
      <point x="647" y="0" type="line"/>
    </contour>
  </outline>
</glyph>
<glyph name="periodcentered" format="2">
  <advance width="535"/>
  <unicode hex="00B7"/>
  <guideline x="0.0" y="901.0" angle="0.0" identifier="Z64g9yoNqe"/>
  <guideline x="0.0" y="555.0" angle="0.0" identifier="NMux6hQQWk"/>
  <outline>
    <contour>
      <point x="148" y="729" type="qcurve" smooth="yes"/>
      <point x="148.0" y="683.4776119402985"/>
      <point x="206.02985074626866" y="620.0"/>
      <point x="262" y="620" type="qcurve" smooth="yes"/>
      <point x="317.97014925373134" y="620.0"/>
      <point x="377.0" y="683.4776119402985"/>
      <point x="377" y="729" type="qcurve" smooth="yes"/>
      <point x="377.0" y="776.0149253731344"/>
      <point x="317.97014925373134" y="841.0"/>
      <point x="262" y="841" type="qcurve" smooth="yes"/>
      <point x="206.02985074626866" y="841.0"/>
      <point x="148.0" y="776.0149253731344"/>
    </contour>
  </outline>
</glyph>
<glyph name="onesuperior" format="2">
  <advance width="751"/>
  <unicode hex="00B9"/>
  <outline>
    <contour>
      <point x="495.0" y="1456.0" type="line"/>
      <point x="477.0" y="1456.0" type="line"/>
      <point x="123.0" y="1340.0" type="line"/>
      <point x="123.0" y="1211.0" type="line"/>
      <point x="339.0" y="1268.0" type="line"/>
      <point x="339.0" y="667.0" type="line"/>
      <point x="495.0" y="667.0" type="line"/>
    </contour>
  </outline>
</glyph>
<glyph name="questiondown" format="2">
  <advance width="970"/>
  <unicode hex="00BF"/>
  <guideline x="0.0" y="-181.0" angle="0.0" identifier="apukwP5ffL"/>
  <guideline x="0.0" y="921.0" angle="0.0" identifier="5ZPZZL8Rim"/>
  <outline>
    <contour>
      <point x="403" y="680" type="line"/>
      <point x="403.0" y="606.8656716417911"/>
      <point x="366.7313432835821" y="482.4925373134328"/>
      <point x="313" y="431" type="qcurve"/>
      <point x="223.44776119402985" y="343.6865671641791"/>
      <point x="68.0" y="129.82089552238804"/>
      <point x="68" y="-6" type="qcurve" smooth="yes"/>
      <point x="68.0" y="-185.1044776119403"/>
      <point x="283.9701492537314" y="-386.0"/>
      <point x="478" y="-386" type="qcurve" smooth="yes"/>
      <point x="650.3880597014925" y="-386.0"/>
      <point x="886.7611940298508" y="-189.40298507462686"/>
      <point x="889" y="-20" type="qcurve"/>
      <point x="704" y="-20" type="line"/>
      <point x="703.2537313432836" y="-123.73134328358208"/>
      <point x="565.3134328358209" y="-224.0"/>
      <point x="478" y="-224" type="qcurve" smooth="yes"/>
      <point x="370.53731343283584" y="-224.0"/>
      <point x="254.0" y="-108.955223880597"/>
      <point x="254" y="0" type="qcurve" smooth="yes"/>
      <point x="254.0" y="102.98507462686567"/>
      <point x="356.56716417910445" y="230.089552238806"/>
      <point x="420" y="298" type="qcurve" smooth="yes"/>
      <point x="511.7910447761194" y="398.0"/>
      <point x="587.5074626865671" y="536.7164179104477"/>
      <point x="589" y="680" type="qcurve"/>
    </contour>
    <contour>
      <point x="597" y="997" type="qcurve" smooth="yes"/>
      <point x="597.0" y="1041.0298507462687"/>
      <point x="540.9850746268656" y="1102.0"/>
      <point x="488" y="1102" type="qcurve" smooth="yes"/>
      <point x="434.2686567164179" y="1102.0"/>
      <point x="378.0" y="1041.0298507462687"/>
      <point x="378" y="997" type="qcurve" smooth="yes"/>
      <point x="378.0" y="952.9701492537314"/>
      <point x="434.2686567164179" y="891.0"/>
      <point x="488" y="891" type="qcurve" smooth="yes"/>
      <point x="540.9850746268656" y="891.0"/>
      <point x="597.0" y="952.9701492537314"/>
    </contour>
  </outline>
</glyph>
<glyph name="Eth" format="2">
  <advance width="1374"/>
  <unicode hex="00D0"/>
  <anchor x="609" y="1612" name="parent_top"/>
  <anchor x="613" y="10" name="bottom"/>
  <anchor x="1374" y="1600" name="top_dd"/>
  <anchor x="1374" y="-407" name="bottom_dd"/>
  <anchor x="1374" y="1612" name="top0315"/>
  <anchor x="609" y="1612" name="top"/>
  <outline>
    <contour>
      <point x="593" y="0" type="line"/>
      <point x="894.4925373134329" y="0.0"/>
      <point x="1253.0" y="369.82089552238807"/>
      <point x="1253" y="684" type="qcurve"/>
      <point x="1253" y="771" type="line"/>
      <point x="1253.0" y="1085.1791044776119"/>
      <point x="896.0746268656717" y="1456.0"/>
      <point x="611" y="1456" type="qcurve"/>
      <point x="283" y="1456" type="line"/>
      <point x="283" y="1298" type="line"/>
      <point x="611" y="1298" type="line"/>
      <point x="825.1791044776119" y="1298.0"/>
      <point x="1062.0" y="1022.2537313432836"/>
      <point x="1062" y="773" type="qcurve"/>
      <point x="1062" y="684" type="line" smooth="yes"/>
      <point x="1062.0" y="445.94029850746267"/>
      <point x="825.0895522388059" y="157.0"/>
      <point x="593" y="157" type="qcurve"/>
      <point x="291" y="157" type="line"/>
      <point x="289" y="0" type="line"/>
    </contour>
    <contour>
      <point x="392" y="1456" type="line"/>
      <point x="199" y="1456" type="line"/>
      <point x="199" y="0" type="line"/>
      <point x="392" y="0" type="line"/>
    </contour>
    <contour>
      <point x="674" y="817" type="line"/>
      <point x="37" y="817" type="line"/>
      <point x="37" y="665" type="line"/>
      <point x="674" y="665" type="line"/>
    </contour>
  </outline>
</glyph>
<glyph name="Oslash" format="2">
  <advance width="1409"/>
  <unicode hex="00D8"/>
  <anchor x="715" y="1674" name="top"/>
  <anchor x="1409" y="1600" name="top_dd"/>
  <anchor x="1409" y="1674" name="top0315"/>
  <anchor x="715" y="1674" name="parent_top"/>
  <outline>
    <contour>
      <point x="1309" y="1516" type="line"/>
      <point x="1169" y="1516" type="line"/>
      <point x="164" y="-93" type="line"/>
      <point x="307" y="-93" type="line"/>
    </contour>
    <contour>
      <point x="1290" y="774" type="line"/>
      <point x="1290.0" y="1099.3731343283582"/>
      <point x="968.1791044776119" y="1476.0"/>
      <point x="704" y="1476" type="qcurve" smooth="yes"/>
      <point x="446.53731343283584" y="1476.0"/>
      <point x="119.0" y="1099.3731343283582"/>
      <point x="119" y="774" type="qcurve"/>
      <point x="119" y="682" type="line"/>
      <point x="119.0" y="355.8805970149254"/>
      <point x="448.53731343283584" y="-20.0"/>
      <point x="706" y="-20" type="qcurve" smooth="yes"/>
      <point x="970.1791044776119" y="-20.0"/>
      <point x="1290.0" y="355.8805970149254"/>
      <point x="1290" y="682" type="qcurve"/>
    </contour>
    <contour>
      <point x="1099" y="682" type="line"/>
      <point x="1099.0" y="421.55223880597015"/>
      <point x="893.3134328358209" y="143.0"/>
      <point x="706" y="143" type="qcurve" smooth="yes"/>
      <point x="527.6417910447761" y="143.0"/>
      <point x="310.0" y="421.55223880597015"/>
      <point x="310" y="682" type="qcurve" smooth="yes"/>
      <point x="310" y="776" type="line" smooth="yes"/>
      <point x="310.0" y="1034.2089552238806"/>
      <point x="525.6417910447761" y="1312.0"/>
      <point x="704" y="1312" type="qcurve" smooth="yes"/>
      <point x="889.820895522388" y="1312.0"/>
      <point x="1099.0" y="1034.2089552238806"/>
      <point x="1099" y="776" type="qcurve"/>
    </contour>
  </outline>
</glyph>
<glyph name="Thorn" format="2">
  <advance width="1210"/>
  <unicode hex="00DE"/>
  <guideline x="0.0" y="901.0" angle="0.0" identifier="i9jYwjBDP4"/>
  <guideline x="0.0" y="555.0" angle="0.0" identifier="T8KKW8oxop"/>
  <outline>
    <contour>
      <point x="167" y="1456" type="line"/>
      <point x="167" y="0" type="line"/>
      <point x="352" y="0" type="line"/>
      <point x="352" y="1456" type="line"/>
    </contour>
    <contour>
      <point x="260" y="1163" type="line"/>
      <point x="350" y="1012" type="line"/>
      <point x="630" y="1012" type="line" smooth="yes"/>
      <point x="790.4477611940298" y="1012.0"/>
      <point x="932.0" y="840.4776119402985"/>
      <point x="932" y="736" type="qcurve" smooth="yes"/>
      <point x="932.0" y="634.5074626865671"/>
      <point x="790.4477611940298" y="465.0"/>
      <point x="630" y="465" type="qcurve" smooth="yes"/>
      <point x="311" y="465" type="line"/>
      <point x="311" y="314" type="line"/>
      <point x="630" y="314" type="line" smooth="yes"/>
      <point x="865.0746268656717" y="314.0"/>
      <point x="1117.0" y="555.9104477611941"/>
      <point x="1117" y="738" type="qcurve" smooth="yes"/>
      <point x="1117.0" y="920.8358208955224"/>
      <point x="865.0746268656717" y="1163.0"/>
      <point x="630" y="1163" type="qcurve" smooth="yes"/>
    </contour>
  </outline>
</glyph>
<glyph name="germandbls" format="2">
  <advance width="1218"/>
  <unicode hex="00DF"/>
  <outline>
    <contour>
      <point x="324" y="1112" type="line" name="hr00"/>
      <point x="324.0" y="1261.2537313432836"/>
      <point x="440.01492537313436" y="1403.0"/>
      <point x="543" y="1403" type="qcurve" smooth="yes"/>
      <point x="624.3432835820895" y="1403.0"/>
      <point x="734.0" y="1300.2537313432836"/>
      <point x="734" y="1201" type="qcurve" smooth="yes"/>
      <point x="734.0" y="1086.8208955223881"/>
      <point x="596.0" y="942.1492537313433"/>
      <point x="596" y="822" type="qcurve" smooth="yes"/>
      <point x="596.0" y="619.7611940298508"/>
      <point x="945.0" y="449.04477611940297"/>
      <point x="945" y="308" type="qcurve" smooth="yes"/>
      <point x="945.0" y="234.86567164179104"/>
      <point x="842.4179104477612" y="131.0"/>
      <point x="726" y="131" type="qcurve" smooth="yes"/>
      <point x="656.5970149253732" y="131.0"/>
      <point x="522.3283582089553" y="185.3582089552239"/>
      <point x="488" y="207" type="qcurve"/>
      <point x="446" y="52" type="line"/>
      <point x="484.05970149253733" y="24.38805970149254"/>
      <point x="663.6567164179105" y="-20.0"/>
      <point x="745" y="-20" type="qcurve" smooth="yes"/>
      <point x="912.1641791044776" y="-20.0"/>
      <point x="1130.0" y="146.85074626865674"/>
      <point x="1130" y="317" type="qcurve" smooth="yes"/>
      <point x="1130.0" y="509.53731343283584"/>
      <point x="781.0" y="683.4328358208955"/>
      <point x="781" y="820" type="qcurve" smooth="yes"/>
      <point x="781.0" y="922.2388059701492"/>
      <point x="909.0" y="1057.2985074626865"/>
      <point x="909" y="1217" type="qcurve" smooth="yes"/>
      <point x="909.0" y="1389.3880597014925"/>
      <point x="694.9402985074627" y="1554.0"/>
      <point x="533" y="1554" type="qcurve" smooth="yes"/>
      <point x="358.3731343283582" y="1554.0"/>
      <point x="140.0" y="1329.910447761194"/>
      <point x="140" y="1112" type="qcurve" smooth="yes"/>
      <point x="140" y="0" type="line"/>
      <point x="324" y="0" type="line"/>
    </contour>
  </outline>
</glyph>
<glyph name="ae" format="2">
  <advance width="1730"/>
  <unicode hex="00E6"/>
  <anchor x="859" y="1291" name="top"/>
  <anchor x="1730" y="1600" name="top_dd"/>
  <anchor x="1730" y="1291" name="top0315"/>
  <anchor x="859" y="1291" name="parent_top"/>
  <outline>
    <contour>
      <point x="749" y="183" type="line"/>
      <point x="929" y="218" type="line"/>
      <point x="929" y="718" type="line"/>
      <point x="929.0" y="908.2985074626865"/>
      <point x="710.3731343283582" y="1102.0"/>
      <point x="535" y="1102" type="qcurve" smooth="yes"/>
      <point x="344.70149253731347" y="1102.0"/>
      <point x="107.0" y="917.5522388059701"/>
      <point x="107" y="778" type="qcurve"/>
      <point x="291" y="760" type="line"/>
      <point x="291.0" y="836.8656716417911"/>
      <point x="423.80597014925377" y="950.0"/>
      <point x="535" y="950" type="qcurve" smooth="yes"/>
      <point x="637.9850746268656" y="950.0"/>
      <point x="749.0" y="826.7164179104477"/>
      <point x="749" y="720" type="qcurve"/>
    </contour>
    <contour>
      <point x="790" y="636" type="line"/>
      <point x="527" y="636" type="line"/>
      <point x="307.5970149253732" y="636.0"/>
      <point x="79.0" y="460.7164179104477"/>
      <point x="79" y="304" type="qcurve" smooth="yes"/>
      <point x="79.0" y="156.9850746268657"/>
      <point x="263.1044776119403" y="-21.0"/>
      <point x="434" y="-21" type="qcurve" smooth="yes"/>
      <point x="622.8059701492537" y="-21.0"/>
      <point x="847.7014925373135" y="121.86567164179105"/>
      <point x="888" y="195" type="qcurve"/>
      <point x="792" y="339" type="line"/>
      <point x="790.5074626865671" y="277.80597014925377"/>
      <point x="578.2089552238806" y="130.0"/>
      <point x="470" y="130" type="qcurve" smooth="yes"/>
      <point x="365.5223880597015" y="130.0"/>
      <point x="264.0" y="229.1044776119403"/>
      <point x="264" y="300" type="qcurve" smooth="yes"/>
      <point x="264.0" y="377.6119402985074"/>
      <point x="398.4029850746269" y="496.0"/>
      <point x="529" y="496" type="qcurve"/>
      <point x="790" y="496" type="line"/>
    </contour>
    <contour>
      <point x="1263" y="-21" type="qcurve"/>
      <point x="1422.7014925373135" y="-21.0"/>
      <point x="1610.1641791044776" y="75.88059701492537"/>
      <point x="1643" y="102" type="qcurve"/>
      <point x="1578" y="238" type="line"/>
      <point x="1528.0" y="204.4179104477612"/>
      <point x="1380.910447761194" y="131.0"/>
      <point x="1263" y="131" type="qcurve" smooth="yes"/>
      <point x="1090.6119402985075" y="131.0"/>
      <point x="933.0" y="359.5522388059702"/>
      <point x="933" y="520" type="qcurve" smooth="yes"/>
      <point x="933" y="564" type="line" smooth="yes"/>
      <point x="933.0" y="723.7014925373135"/>
      <point x="1082.4328358208954" y="950.0"/>
      <point x="1219" y="950" type="qcurve"/>
      <point x="1358.55223880597" y="950.0"/>
      <point x="1475.0" y="783.6865671641791"/>
      <point x="1475" y="671" type="qcurve"/>
      <point x="1475" y="640" type="line"/>
      <point x="857" y="640" type="line"/>
      <point x="857" y="498" type="line"/>
      <point x="1661" y="498" type="line"/>
      <point x="1661" y="616" type="line" smooth="yes"/>
      <point x="1661.0" y="839.1343283582089"/>
      <point x="1433.1791044776119" y="1102.0"/>
      <point x="1219" y="1102" type="qcurve" smooth="yes"/>
      <point x="1021.9850746268658" y="1103.4925373134329"/>
      <point x="758.0" y="799.820895522388"/>
      <point x="758" y="564" type="qcurve" smooth="yes"/>
      <point x="758" y="520" type="line" smooth="yes"/>
      <point x="758.0" y="284.92537313432837"/>
      <point x="1018.9701492537314" y="-21.0"/>
    </contour>
  </outline>
</glyph>
<glyph name="eth" format="2">
  <advance width="1201"/>
  <unicode hex="00F0"/>
  <outline>
    <contour>
      <point x="255" y="1421" type="line"/>
      <point x="509.4776119402985" y="1354.5820895522388"/>
      <point x="884.0" y="984.2537313432836"/>
      <point x="884" y="635" type="qcurve" smooth="yes"/>
      <point x="884" y="535" type="line" smooth="yes"/>
      <point x="884.0" y="363.35820895522386"/>
      <point x="734.3582089552239" y="132.0"/>
      <point x="606" y="132" type="qcurve" smooth="yes"/>
      <point x="464.95522388059703" y="132.0"/>
      <point x="312.0" y="344.86567164179104"/>
      <point x="312" y="468" type="qcurve"/>
      <point x="312.0" y="632.1791044776119"/>
      <point x="472.4776119402985" y="826.0"/>
      <point x="618" y="826" type="qcurve"/>
      <point x="761.2835820895523" y="826.0"/>
      <point x="905.0" y="680.4179104477612"/>
      <point x="905" y="614" type="qcurve"/>
      <point x="974" y="613" type="line"/>
      <point x="974.0" y="748.0746268656717"/>
      <point x="742.6567164179105" y="978.0"/>
      <point x="574" y="978" type="qcurve"/>
      <point x="381.46268656716416" y="978.0"/>
      <point x="126.0" y="697.8507462686567"/>
      <point x="126" y="468" type="qcurve"/>
      <point x="126.0" y="265.01492537313436"/>
      <point x="392.2985074626866" y="-20.0"/>
      <point x="602" y="-20" type="qcurve" smooth="yes"/>
      <point x="804.2388059701492" y="-20.0"/>
      <point x="1070.0" y="289.4776119402985"/>
      <point x="1070" y="535" type="qcurve"/>
      <point x="1070" y="633" type="line"/>
      <point x="1070.0" y="1008.3731343283582"/>
      <point x="648.5671641791045" y="1505.6268656716418"/>
      <point x="312" y="1581" type="qcurve"/>
    </contour>
    <contour>
      <point x="988" y="1417" type="line"/>
      <point x="915" y="1516" type="line"/>
      <point x="378" y="1151" type="line"/>
      <point x="451" y="1051" type="line"/>
    </contour>
  </outline>
</glyph>
<glyph name="divide" format="2">
  <advance width="1170"/>
  <unicode hex="00F7"/>
  <outline>
    <contour>
      <point x="1069" y="784" type="line"/>
      <point x="71" y="784" type="line"/>
      <point x="71" y="600" type="line"/>
      <point x="1069" y="600" type="line"/>
    </contour>
    <contour>
      <point x="462" y="1098" type="qcurve" smooth="yes"/>
      <point x="462.0" y="1052.4776119402984"/>
      <point x="520.0298507462687" y="989.0"/>
      <point x="576" y="989" type="qcurve" smooth="yes"/>
      <point x="631.9701492537313" y="989.0"/>
      <point x="691.0" y="1052.4776119402984"/>
      <point x="691" y="1098" type="qcurve" smooth="yes"/>
      <point x="691.0" y="1145.7611940298507"/>
      <point x="631.9701492537313" y="1210.0"/>
      <point x="576" y="1210" type="qcurve" smooth="yes"/>
      <point x="520.0298507462687" y="1210.0"/>
      <point x="462.0" y="1145.7611940298507"/>
    </contour>
    <contour>
      <point x="462" y="282" type="qcurve" smooth="yes"/>
      <point x="462.0" y="235.73134328358208"/>
      <point x="520.0298507462687" y="172.0"/>
      <point x="576" y="172" type="qcurve" smooth="yes"/>
      <point x="631.9701492537313" y="172.0"/>
      <point x="691.0" y="235.73134328358208"/>
      <point x="691" y="282" type="qcurve" smooth="yes"/>
      <point x="691.0" y="329.0149253731343"/>
      <point x="631.9701492537313" y="394.0"/>
      <point x="576" y="394" type="qcurve" smooth="yes"/>
      <point x="520.0298507462687" y="394.0"/>
      <point x="462.0" y="329.0149253731343"/>
    </contour>
  </outline>
</glyph>
<glyph name="oslash" format="2">
  <advance width="1161"/>
  <unicode hex="00F8"/>
  <anchor x="537" y="1289" name="top"/>
  <anchor x="1161" y="1600" name="top_dd"/>
  <anchor x="1161" y="1289" name="top0315"/>
  <anchor x="537" y="1289" name="parent_top"/>
  <outline>
    <contour>
      <point x="983" y="1209" type="line"/>
      <point x="860" y="1209" type="line"/>
      <point x="197" y="-135" type="line"/>
      <point x="320" y="-135" type="line"/>
    </contour>
    <contour>
      <point x="92" y="529" type="line"/>
      <point x="92.0" y="295.4179104477612"/>
      <point x="358.13432835820896" y="-20.0"/>
      <point x="585" y="-20" type="qcurve" smooth="yes"/>
      <point x="811.1194029850747" y="-20.0"/>
      <point x="1076.0" y="295.4179104477612"/>
      <point x="1076" y="529" type="qcurve"/>
      <point x="1076" y="552" type="line"/>
      <point x="1076.0" y="785.5820895522388"/>
      <point x="810.6119402985074" y="1102.0"/>
      <point x="583" y="1102" type="qcurve" smooth="yes"/>
      <point x="357.6268656716418" y="1102.0"/>
      <point x="92.0" y="785.5820895522388"/>
      <point x="92" y="552" type="qcurve"/>
    </contour>
    <contour>
      <point x="277" y="552" type="line"/>
      <point x="277.0" y="710.2089552238806"/>
      <point x="430.7611940298508" y="950.0"/>
      <point x="583" y="950" type="qcurve" smooth="yes"/>
      <point x="735.9850746268656" y="950.0"/>
      <point x="891.0" y="710.2089552238806"/>
      <point x="891" y="552" type="qcurve"/>
      <point x="891" y="529" type="line"/>
      <point x="891.0" y="368.5522388059702"/>
      <point x="736.4925373134329" y="132.0"/>
      <point x="585" y="132" type="qcurve" smooth="yes"/>
      <point x="431.2686567164179" y="132.0"/>
      <point x="277.0" y="368.5522388059702"/>
      <point x="277" y="529" type="qcurve"/>
    </contour>
  </outline>
</glyph>
<glyph name="thorn" format="2">
  <advance width="1180"/>
  <unicode hex="00FE"/>
  <outline>
    <contour>
      <point x="335" y="1536" type="line"/>
      <point x="149" y="1536" type="line"/>
      <point x="149" y="-416" type="line"/>
      <point x="335" y="-416" type="line"/>
    </contour>
    <contour>
      <point x="1064" y="550" type="line"/>
      <point x="1064.0" y="796.2686567164179"/>
      <point x="844.7313432835821" y="1102.0"/>
      <point x="641" y="1102" type="qcurve" smooth="yes"/>
      <point x="438.01492537313436" y="1102.0"/>
      <point x="219.88059701492537" y="824.0597014925373"/>
      <point x="196" y="586" type="qcurve"/>
      <point x="196" y="474" type="line"/>
      <point x="219.13432835820896" y="247.13432835820896"/>
      <point x="438.02985074626866" y="-20.0"/>
      <point x="644" y="-20" type="qcurve" smooth="yes"/>
      <point x="844.0" y="-20.0"/>
      <point x="1064.0" y="293.179104477612"/>
      <point x="1064" y="529" type="qcurve" smooth="yes"/>
    </contour>
    <contour>
      <point x="878" y="529" type="line"/>
      <point x="878.0" y="368.5522388059702"/>
      <point x="738.2537313432836" y="132.0"/>
      <point x="589" y="132" type="qcurve" smooth="yes"/>
      <point x="452.43283582089555" y="132.0"/>
      <point x="315.85074626865674" y="294.7761194029851"/>
      <point x="286" y="400" type="qcurve"/>
      <point x="286" y="659" type="line"/>
      <point x="308.3880597014925" y="768.7014925373135"/>
      <point x="448.1940298507463" y="946.0"/>
      <point x="587" y="946" type="qcurve" smooth="yes"/>
      <point x="737.7462686567164" y="946.0"/>
      <point x="878.0" y="710.4477611940298"/>
      <point x="878" y="550" type="qcurve" smooth="yes"/>
    </contour>
  </outline>
</glyph>
<glyph name="dcroat" format="2">
  <advance width="1224"/>
  <unicode hex="0111"/>
  <anchor x="617" y="0" name="bottom"/>
  <anchor x="549" y="1611" name="top"/>
  <anchor x="1155" y="1600" name="top_dd"/>
  <anchor x="1155" y="-407" name="bottom_dd"/>
  <anchor x="617" y="0" name="markbottom"/>
  <anchor x="1224" y="1611" name="top0315"/>
  <anchor x="878" y="1310" name="parenthesses.w2"/>
  <anchor x="878" y="1310" name="markparenthesses.w2"/>
  <anchor x="549" y="1611" name="parent_top"/>
  <outline>
    <contour>
      <point x="823" y="210" type="line"/>
      <point x="839" y="0" type="line"/>
      <point x="1009" y="0" type="line"/>
      <point x="1009" y="1536" type="line"/>
      <point x="823" y="1536" type="line"/>
    </contour>
    <contour>
      <point x="95" y="529" type="line"/>
      <point x="95.0" y="293.179104477612"/>
      <point x="331.4477611940299" y="-20.0"/>
      <point x="521" y="-20" type="qcurve" smooth="yes"/>
      <point x="725.4776119402985" y="-20.0"/>
      <point x="936.6119402985074" y="257.43283582089555"/>
      <point x="959" y="494" type="qcurve"/>
      <point x="959" y="586" type="line"/>
      <point x="935.8656716417911" y="824.0597014925373"/>
      <point x="725.9850746268656" y="1102.0"/>
      <point x="523" y="1102" type="qcurve" smooth="yes"/>
      <point x="330.46268656716416" y="1102.0"/>
      <point x="95.0" y="796.2686567164179"/>
      <point x="95" y="550" type="qcurve" smooth="yes"/>
    </contour>
    <contour>
      <point x="281" y="550" type="line"/>
      <point x="281.0" y="710.4477611940298"/>
      <point x="418.25373134328356" y="946.0"/>
      <point x="569" y="946" type="qcurve" smooth="yes"/>
      <point x="707.8059701492537" y="946.0"/>
      <point x="846.8656716417911" y="768.7014925373135"/>
      <point x="870" y="659" type="qcurve"/>
      <point x="870" y="418" type="line"/>
      <point x="840.1492537313433" y="306.05970149253733"/>
      <point x="703.5671641791045" y="137.0"/>
      <point x="567" y="137" type="qcurve" smooth="yes"/>
      <point x="417.74626865671644" y="137.0"/>
      <point x="281.0" y="368.5522388059702"/>
      <point x="281" y="529" type="qcurve" smooth="yes"/>
    </contour>
    <contour>
      <point x="1197" y="1385" type="line"/>
      <point x="560" y="1385" type="line"/>
      <point x="560" y="1233" type="line"/>
      <point x="1197" y="1233" type="line"/>
    </contour>
  </outline>
</glyph>
<glyph name="Hbar" format="2">
  <advance width="1435"/>
  <unicode hex="0126"/>
  <anchor x="724" y="1612" name="top"/>
  <anchor x="724" y="10" name="bottom"/>
  <anchor x="1435" y="1612" name="top0315"/>
  <anchor x="724" y="1612" name="parent_top"/>
  <outline>
    <contour>
      <point x="1417" y="1167" type="line"/>
      <point x="30" y="1167" type="line"/>
      <point x="30" y="1024" type="line"/>
      <point x="1417" y="1024" type="line"/>
    </contour>
    <contour>
      <point x="1114" y="830" type="line"/>
      <point x="326" y="830" type="line"/>
      <point x="326" y="673" type="line"/>
      <point x="1114" y="673" type="line"/>
    </contour>
    <contour>
      <point x="356" y="1456" type="line"/>
      <point x="164" y="1456" type="line"/>
      <point x="164" y="0" type="line"/>
      <point x="356" y="0" type="line"/>
    </contour>
    <contour>
      <point x="1283" y="1456" type="line"/>
      <point x="1090" y="1456" type="line"/>
      <point x="1090" y="0" type="line"/>
      <point x="1283" y="0" type="line"/>
    </contour>
  </outline>
</glyph>
<glyph name="dotlessi" format="2">
  <advance width="507"/>
  <unicode hex="0131"/>
  <anchor x="252" y="1288" name="top"/>
  <anchor x="249" y="10" name="bottom"/>
  <anchor x="277" y="654" name="rhotichook"/>
  <anchor x="507" y="1288" name="top0315"/>
  <anchor x="252" y="1288" name="parent_top"/>
  <outline>
    <contour>
      <point x="341" y="1082" type="line"/>
      <point x="156" y="1082" type="line"/>
      <point x="156" y="0" type="line"/>
      <point x="341" y="0" type="line"/>
    </contour>
  </outline>
</glyph>
<glyph name="Lslash" format="2">
  <advance width="1103"/>
  <unicode hex="0141"/>
  <anchor x="262" y="1596" name="top"/>
  <anchor x="618" y="10" name="bottom"/>
  <anchor x="1103" y="1596" name="top0315"/>
  <anchor x="262" y="1596" name="parent_top"/>
  <outline>
    <contour>
      <point x="624" y="928" type="line"/>
      <point x="35" y="741" type="line"/>
      <point x="35" y="616" type="line"/>
      <point x="624" y="803" type="line"/>
    </contour>
    <contour>
      <point x="1052" y="157" type="line"/>
      <point x="323" y="157" type="line"/>
      <point x="323" y="0" type="line"/>
      <point x="1052" y="0" type="line"/>
    </contour>
    <contour>
      <point x="361" y="1456" type="line"/>
      <point x="169" y="1456" type="line"/>
      <point x="169" y="0" type="line"/>
      <point x="361" y="0" type="line"/>
    </contour>
  </outline>
</glyph>
<glyph name="lslash" format="2">
  <advance width="554"/>
  <unicode hex="0142"/>
  <anchor x="280" y="1697" name="top"/>
  <anchor x="280" y="10" name="bottom"/>
  <anchor x="554" y="1697" name="top0315"/>
  <anchor x="280" y="1697" name="parent_top"/>
  <outline>
    <contour>
      <point x="523" y="930" type="line"/>
      <point x="35" y="743" type="line"/>
      <point x="35" y="621" type="line"/>
      <point x="523" y="808" type="line"/>
    </contour>
    <contour>
      <point x="364" y="1536" type="line"/>
      <point x="179" y="1536" type="line"/>
      <point x="179" y="0" type="line"/>
      <point x="364" y="0" type="line"/>
    </contour>
  </outline>
</glyph>
<glyph name="Eng" format="2">
  <advance width="1419"/>
  <unicode hex="014A"/>
  <anchor x="726" y="1601" name="top"/>
  <anchor x="720" y="10" name="bottom"/>
  <anchor x="1419" y="1601" name="top0315"/>
  <anchor x="726" y="1601" name="parent_top"/>
  <outline>
    <contour>
      <point x="162" y="1456" type="line"/>
      <point x="162" y="0" type="line"/>
      <point x="355" y="0" type="line"/>
      <point x="355" y="1456" type="line"/>
    </contour>
    <contour>
      <point x="220" y="1342" type="line"/>
      <point x="1072" y="0" type="line"/>
      <point x="1207" y="114" type="line"/>
      <point x="355" y="1456" type="line"/>
    </contour>
    <contour>
      <point x="1072" y="1456" type="line"/>
      <point x="1072" y="-84" type="line" smooth="yes"/>
      <point x="1072.0" y="-175.04477611940297"/>
      <point x="999.9253731343283" y="-279.0"/>
      <point x="935" y="-279" type="qcurve" smooth="yes"/>
      <point x="920.0746268656717" y="-279.0"/>
      <point x="853.4179104477612" y="-271.97014925373134"/>
      <point x="837" y="-266" type="qcurve"/>
      <point x="823" y="-420" type="line"/>
      <point x="852.8507462686567" y="-429.7014925373134"/>
      <point x="906.6567164179105" y="-437.0"/>
      <point x="938" y="-437" type="qcurve" smooth="yes"/>
      <point x="1090.2388059701493" y="-437.0"/>
      <point x="1265.0" y="-254.14925373134326"/>
      <point x="1265" y="-84" type="qcurve" smooth="yes"/>
      <point x="1265" y="1456" type="line"/>
    </contour>
  </outline>
</glyph>
<glyph name="eng" format="2">
  <advance width="1161"/>
  <unicode hex="014B"/>
  <anchor x="573" y="1290" name="top"/>
  <anchor x="563" y="10" name="bottom"/>
  <anchor x="797" y="-304" name="parenthesses.w1"/>
  <anchor x="563" y="10" name="markbottom"/>
  <anchor x="1161" y="1290" name="top0315"/>
  <anchor x="797" y="-304" name="markparenthesses.w1"/>
  <anchor x="573" y="1290" name="parent_top"/>
  <outline>
    <contour>
      <point x="331" y="851" type="line"/>
      <point x="312" y="1082" type="line"/>
      <point x="146" y="1082" type="line"/>
      <point x="146" y="0" type="line"/>
      <point x="331" y="0" type="line"/>
    </contour>
    <contour>
      <point x="274" y="576" type="line"/>
      <point x="274.0" y="727.4925373134329"/>
      <point x="422.32835820895525" y="946.0"/>
      <point x="588" y="946" type="qcurve" smooth="yes"/>
      <point x="700.6865671641791" y="946.0"/>
      <point x="824.0" y="828.2537313432836"/>
      <point x="824" y="679" type="qcurve" smooth="yes"/>
      <point x="824" y="-89" type="line" smooth="yes"/>
      <point x="824.0" y="-180.7910447761194"/>
      <point x="750.9253731343283" y="-275.0"/>
      <point x="686" y="-275" type="qcurve" smooth="yes"/>
      <point x="671.820895522388" y="-275.0"/>
      <point x="601.6716417910447" y="-268.97014925373134"/>
      <point x="586" y="-263" type="qcurve"/>
      <point x="572" y="-420" type="line"/>
      <point x="601.8507462686567" y="-429.7014925373134"/>
      <point x="655.4029850746268" y="-437.0"/>
      <point x="686" y="-437" type="qcurve" smooth="yes"/>
      <point x="836.7462686567164" y="-437.0"/>
      <point x="1009.0" y="-256.910447761194"/>
      <point x="1009" y="-89" type="qcurve" smooth="yes"/>
      <point x="1009" y="682" type="line" smooth="yes"/>
      <point x="1009.0" y="903.6417910447761"/>
      <point x="810.9104477611941" y="1102.0"/>
      <point x="643" y="1102" type="qcurve" smooth="yes"/>
      <point x="451.2089552238806" y="1102.0"/>
      <point x="232.0" y="802.3582089552239"/>
      <point x="232" y="574" type="qcurve"/>
    </contour>
  </outline>
</glyph>
<glyph name="OE" format="2">
  <advance width="1879"/>
  <unicode hex="0152"/>
  <anchor x="963" y="1603" name="top"/>
  <anchor x="963" y="0" name="bottom"/>
  <anchor x="1963" y="1600" name="top_dd"/>
  <anchor x="1963" y="-407" name="bottom_dd"/>
  <anchor x="1963" y="1603" name="top0315"/>
  <anchor x="963" y="1603" name="parent_top"/>
  <outline>
    <contour>
      <point x="713" y="1477.0" type="qcurve" smooth="yes"/>
      <point x="455" y="1477.0"/>
      <point x="115" y="1105.0"/>
      <point x="115" y="772" type="qcurve" smooth="yes"/>
      <point x="115" y="682" type="line" smooth="yes"/>
      <point x="115" y="340"/>
      <point x="458" y="-21"/>
      <point x="672" y="-21" type="qcurve" smooth="yes"/>
      <point x="748" y="-21"/>
      <point x="897" y="-7"/>
      <point x="964" y="0" type="qcurve"/>
      <point x="964" y="158" type="line"/>
      <point x="899" y="146"/>
      <point x="793" y="128"/>
      <point x="715" y="128" type="qcurve"/>
      <point x="543" y="128"/>
      <point x="310.0" y="418"/>
      <point x="310" y="682" type="qcurve" smooth="yes"/>
      <point x="310" y="774" type="line" smooth="yes"/>
      <point x="310.0" y="1030.0"/>
      <point x="540" y="1325.0"/>
      <point x="717" y="1325.0" type="qcurve" smooth="yes"/>
      <point x="748" y="1325"/>
      <point x="898" y="1310"/>
      <point x="964" y="1298" type="qcurve"/>
      <point x="964" y="1456" type="line"/>
      <point x="897" y="1464"/>
      <point x="746" y="1477"/>
    </contour>
    <contour>
      <point x="1811" y="157" type="line"/>
      <point x="1040" y="157" type="line"/>
      <point x="1040" y="0" type="line"/>
      <point x="1811" y="0" type="line"/>
    </contour>
    <contour>
      <point x="1079" y="1456" type="line"/>
      <point x="886" y="1456" type="line"/>
      <point x="886" y="0" type="line"/>
      <point x="1079" y="0" type="line"/>
    </contour>
    <contour>
      <point x="1709" y="830" type="line"/>
      <point x="1040" y="830" type="line"/>
      <point x="1040" y="673" type="line"/>
      <point x="1709" y="673" type="line"/>
    </contour>
    <contour>
      <point x="1801" y="1456" type="line"/>
      <point x="1040" y="1456" type="line"/>
      <point x="1040" y="1298" type="line"/>
      <point x="1801" y="1298" type="line"/>
    </contour>
  </outline>
</glyph>
<glyph name="oe" format="2">
  <advance width="1860"/>
  <unicode hex="0153"/>
  <anchor x="945" y="1290" name="top"/>
  <anchor x="945" y="-1" name="bottom"/>
  <anchor x="1860" y="1600" name="top_dd"/>
  <anchor x="1860" y="-407" name="bottom_dd"/>
  <anchor x="1860" y="1290" name="top0315"/>
  <anchor x="945" y="1290" name="parent_top"/>
  <outline>
    <contour>
      <point x="1379" y="-21" type="qcurve"/>
      <point x="1525.2686567164178" y="-21.0"/>
      <point x="1711.7462686567164" y="65.23880597014926"/>
      <point x="1761" y="113" type="qcurve"/>
      <point x="1688" y="239" type="line"/>
      <point x="1638.0" y="194.22388059701493"/>
      <point x="1487.955223880597" y="131.0"/>
      <point x="1379" y="131" type="qcurve" smooth="yes"/>
      <point x="1229.0" y="131.0"/>
      <point x="1075.0" y="359.5522388059702"/>
      <point x="1075" y="520" type="qcurve" smooth="yes"/>
      <point x="1075" y="564" type="line" smooth="yes"/>
      <point x="1075.0" y="723.7014925373135"/>
      <point x="1230.1044776119404" y="950.0"/>
      <point x="1351" y="950" type="qcurve"/>
      <point x="1483.089552238806" y="950.0"/>
      <point x="1607.0" y="783.2089552238806"/>
      <point x="1607" y="675" type="qcurve"/>
      <point x="1607" y="649" type="line"/>
      <point x="999" y="649" type="line"/>
      <point x="999" y="498" type="line"/>
      <point x="1792" y="498" type="line"/>
      <point x="1792" y="620" type="line" smooth="yes"/>
      <point x="1792.0" y="830.4477611940298"/>
      <point x="1573.3880597014925" y="1102.0"/>
      <point x="1351" y="1102" type="qcurve" smooth="yes"/>
      <point x="1168.910447761194" y="1103.4925373134329"/>
      <point x="889.0" y="799.820895522388"/>
      <point x="889" y="564" type="qcurve" smooth="yes"/>
      <point x="889" y="520" type="line" smooth="yes"/>
      <point x="889.0" y="284.92537313432837"/>
      <point x="1155.865671641791" y="-21.0"/>
    </contour>
    <contour>
      <point x="97" y="529" type="line"/>
      <point x="97.0" y="295.4179104477612"/>
      <point x="354.8805970149254" y="-21.0"/>
      <point x="581" y="-21" type="qcurve" smooth="yes"/>
      <point x="807.8656716417911" y="-21.0"/>
      <point x="1064.0" y="295.4179104477612"/>
      <point x="1064" y="529" type="qcurve"/>
      <point x="1064" y="552" type="line"/>
      <point x="1064.0" y="785.5820895522388"/>
      <point x="807.3582089552239" y="1102.0"/>
      <point x="579" y="1102" type="qcurve" smooth="yes"/>
      <point x="354.3731343283582" y="1102.0"/>
      <point x="97.0" y="785.5820895522388"/>
      <point x="97" y="552" type="qcurve"/>
    </contour>
    <contour>
      <point x="283" y="552" type="line"/>
      <point x="283.0" y="710.2089552238806"/>
      <point x="427.5074626865672" y="950.0"/>
      <point x="579" y="950" type="qcurve" smooth="yes"/>
      <point x="732.7313432835821" y="950.0"/>
      <point x="879.0" y="710.2089552238806"/>
      <point x="879" y="552" type="qcurve"/>
      <point x="879" y="529" type="line"/>
      <point x="879.0" y="368.5522388059702"/>
      <point x="733.2388059701492" y="131.0"/>
      <point x="581" y="131" type="qcurve" smooth="yes"/>
      <point x="428.01492537313436" y="131.0"/>
      <point x="283.0" y="368.5522388059702"/>
      <point x="283" y="529" type="qcurve"/>
    </contour>
  </outline>
</glyph>
<glyph name="schwa" format="2">
  <advance width="1006"/>
  <unicode hex="0259"/>
  <outline>
    <contour>
      <point x="942" y="500" type="qcurve" smooth="yes"/>
      <point x="942" y="283"/>
      <point x="677" y="-22"/>
      <point x="464" y="-22" type="qcurve" smooth="yes"/>
      <point x="269" y="-22"/>
      <point x="47" y="207"/>
      <point x="27" y="412" type="qcurve"/>
      <point x="27" y="472" type="line"/>
      <point x="789" y="472" type="line"/>
      <point x="789" y="376" type="line"/>
      <point x="195" y="376" type="line"/>
      <point x="213" y="237"/>
      <point x="360" y="92"/>
      <point x="472" y="92" type="qcurve" smooth="yes"/>
      <point x="610" y="92"/>
      <point x="762" y="300"/>
      <point x="761" y="480" type="qcurve" smooth="yes"/>
      <point x="760" y="681"/>
      <point x="562" y="892"/>
      <point x="398" y="892" type="qcurve" smooth="yes"/>
      <point x="295" y="892"/>
      <point x="160" y="849"/>
      <point x="115" y="812" type="qcurve"/>
      <point x="64" y="872" type="line"/>
      <point x="111" y="935"/>
      <point x="298" y="1022"/>
      <point x="451" y="1022" type="qcurve" smooth="yes"/>
      <point x="661" y="1022"/>
      <point x="942" y="751"/>
    </contour>
  </outline>
</glyph>
<glyph name="caron" format="2">
  <advance width="910"/>
  <unicode hex="02C7"/>
  <anchor x="450" y="1627" name="mkmktop_acc"/>
  <outline>
    <contour>
      <point x="298" y="1535" type="line"/>
      <point x="142" y="1535" type="line"/>
      <point x="142" y="1525" type="line"/>
      <point x="392" y="1251" type="line"/>
      <point x="506" y="1251" type="line"/>
      <point x="760" y="1525" type="line"/>
      <point x="760" y="1535" type="line"/>
      <point x="600" y="1535" type="line"/>
      <point x="449" y="1365" type="line"/>
    </contour>
  </outline>
</glyph>
<glyph name="breve" format="2">
  <advance width="875"/>
  <unicode hex="02D8"/>
  <anchor x="429" y="1606" name="mkmktop_acc"/>
  <outline>
    <contour>
      <point x="578" y="1495" type="line"/>
      <point x="578.0" y="1436.044776119403"/>
      <point x="509.1044776119403" y="1346.0"/>
      <point x="430" y="1346" type="qcurve" smooth="yes"/>
      <point x="347.91044776119406" y="1346.0"/>
      <point x="280.0" y="1436.044776119403"/>
      <point x="280" y="1495" type="qcurve"/>
      <point x="130" y="1495" type="line"/>
      <point x="130.0" y="1377.8358208955224"/>
      <point x="291.94029850746267" y="1228.0"/>
      <point x="430" y="1228" type="qcurve" smooth="yes"/>
      <point x="567.3134328358209" y="1228.0"/>
      <point x="728.0" y="1377.8358208955224"/>
      <point x="728" y="1495" type="qcurve"/>
    </contour>
  </outline>
</glyph>
<glyph name="dotaccent" format="2">
  <advance width="498"/>
  <unicode hex="02D9"/>
  <anchor x="250" y="1572" name="mkmktop_acc"/>
  <outline>
    <contour>
      <point x="142" y="1368" type="qcurve" smooth="yes"/>
      <point x="142.0" y="1323.9701492537313"/>
      <point x="197.26865671641792" y="1263.0"/>
      <point x="251" y="1263" type="qcurve" smooth="yes"/>
      <point x="303.98507462686564" y="1263.0"/>
      <point x="361.0" y="1323.9701492537313"/>
      <point x="361" y="1368" type="qcurve" smooth="yes"/>
      <point x="361.0" y="1412.0298507462687"/>
      <point x="303.98507462686564" y="1474.0"/>
      <point x="251" y="1474" type="qcurve" smooth="yes"/>
      <point x="197.26865671641792" y="1474.0"/>
      <point x="142.0" y="1412.0298507462687"/>
    </contour>
  </outline>
</glyph>
<glyph name="ring" format="2">
  <advance width="686"/>
  <unicode hex="02DA"/>
  <anchor x="336" y="1693" name="mkmktop_acc"/>
  <outline>
    <contour>
      <point x="121" y="1409" type="qcurve"/>
      <point x="121.0" y="1321.686567164179"/>
      <point x="244.95522388059703" y="1205.0"/>
      <point x="336" y="1205" type="qcurve" smooth="yes"/>
      <point x="426.29850746268653" y="1205.0"/>
      <point x="551.0" y="1321.686567164179"/>
      <point x="551" y="1409" type="qcurve" smooth="yes"/>
      <point x="551.0" y="1494.8208955223881"/>
      <point x="426.29850746268653" y="1617.0"/>
      <point x="336" y="1617" type="qcurve" smooth="yes"/>
      <point x="244.95522388059703" y="1617.0"/>
      <point x="121.0" y="1494.8208955223881"/>
    </contour>
    <contour>
      <point x="220" y="1409" type="qcurve"/>
      <point x="220.0" y="1455.2686567164178"/>
      <point x="285.25373134328356" y="1527.0"/>
      <point x="336" y="1527" type="qcurve" smooth="yes"/>
      <point x="386.74626865671644" y="1527.0"/>
      <point x="452.0" y="1455.2686567164178"/>
      <point x="452" y="1409" type="qcurve" smooth="yes"/>
      <point x="452.0" y="1363.4776119402984"/>
      <point x="386.74626865671644" y="1294.0"/>
      <point x="336" y="1294" type="qcurve" smooth="yes"/>
      <point x="285.25373134328356" y="1294.0"/>
      <point x="220.0" y="1364.9701492537313"/>
    </contour>
  </outline>
</glyph>
<glyph name="ogonek" format="2">
  <advance width="555"/>
  <unicode hex="02DB"/>
  <outline>
    <contour>
      <point x="308" y="57" type="line"/>
      <point x="172.17910447761196" y="-5.686567164179095"/>
      <point x="50.0" y="-163.1492537313433"/>
      <point x="50" y="-243" type="qcurve" smooth="yes"/>
      <point x="50.0" y="-336.2835820895522"/>
      <point x="161.40298507462688" y="-434.0"/>
      <point x="242" y="-434" type="qcurve" smooth="yes"/>
      <point x="300.95522388059703" y="-434.0"/>
      <point x="378.3731343283582" y="-404.92537313432837"/>
      <point x="403" y="-390" type="qcurve"/>
      <point x="389" y="-268" type="line"/>
      <point x="374.07462686567163" y="-276.2089552238806"/>
      <point x="321.8358208955224" y="-295.0"/>
      <point x="289" y="-295" type="qcurve" smooth="yes"/>
      <point x="245.71641791044777" y="-295.0"/>
      <point x="211.0" y="-254.83582089552237"/>
      <point x="211" y="-222" type="qcurve" smooth="yes"/>
      <point x="211.0" y="-157.07462686567163"/>
      <point x="317.82089552238807" y="-47.76119402985074"/>
      <point x="382" y="0" type="qcurve"/>
    </contour>
  </outline>
</glyph>
<glyph name="tilde" format="2">
  <advance width="966"/>
  <unicode hex="02DC"/>
  <anchor x="475" y="1598" name="mkmktop_acc"/>
  <outline>
    <contour>
      <point x="706" y="1512" type="line"/>
      <point x="706.0" y="1464.9850746268658"/>
      <point x="647.7910447761194" y="1400.0"/>
      <point x="606" y="1400" type="qcurve" smooth="yes"/>
      <point x="526.8955223880597" y="1400.0"/>
      <point x="423.07462686567163" y="1495.0"/>
      <point x="338" y="1495" type="qcurve" smooth="yes"/>
      <point x="247.70149253731344" y="1495.0"/>
      <point x="123.0" y="1356.955223880597"/>
      <point x="123" y="1248" type="qcurve"/>
      <point x="248" y="1242" type="line"/>
      <point x="248.0" y="1289.0149253731342"/>
      <point x="305.2089552238806" y="1353.0"/>
      <point x="347" y="1353" type="qcurve" smooth="yes"/>
      <point x="429.8358208955224" y="1353.0"/>
      <point x="513.5074626865671" y="1258.0"/>
      <point x="615" y="1258" type="qcurve" smooth="yes"/>
      <point x="705.2985074626865" y="1258.0"/>
      <point x="831.0" y="1391.2985074626865"/>
      <point x="831" y="1501" type="qcurve"/>
    </contour>
  </outline>
</glyph>
<glyph name="hungarumlaut" format="2">
  <advance width="764"/>
  <unicode hex="02DD"/>
  <guideline x="0.0" y="901.0" angle="0.0" identifier="1emCWSQy5G"/>
  <guideline x="0.0" y="555.0" angle="0.0" identifier="s1MFYmxmed"/>
  <anchor x="344" y="1614" name="mkmktop_acc"/>
  <outline>
    <contour>
      <point x="375" y="1232" type="line"/>
      <point x="544" y="1232" type="line"/>
      <point x="812" y="1535" type="line"/>
      <point x="605" y="1535" type="line"/>
    </contour>
    <contour>
      <point x="95" y="1232" type="line"/>
      <point x="245" y="1232" type="line"/>
      <point x="463" y="1535" type="line"/>
      <point x="265" y="1535" type="line"/>
    </contour>
  </outline>
</glyph>
<glyph name="hookabovecomb" format="2">
  <advance width="1024"/>
  <unicode hex="0309"/>
  <outline>
    <contour>
      <point x="396" y="957" type="line"/>
      <point x="396" y="1100" type="line"/>
      <point x="465" y="1200" type="line"/>
      <point x="485" y="1194"/>
      <point x="523" y="1187"/>
      <point x="540" y="1187" type="qcurve" smooth="yes"/>
      <point x="588" y="1187"/>
      <point x="650" y="1236"/>
      <point x="650" y="1283" type="qcurve" smooth="yes"/>
      <point x="650" y="1327"/>
      <point x="583" y="1372"/>
      <point x="528" y="1372" type="qcurve" smooth="yes"/>
      <point x="473" y="1372"/>
      <point x="357" y="1346"/>
      <point x="312" y="1326" type="qcurve"/>
      <point x="259" y="1440" type="line"/>
      <point x="330" y="1469"/>
      <point x="465" y="1503"/>
      <point x="525" y="1503" type="qcurve" smooth="yes"/>
      <point x="654" y="1503"/>
      <point x="818" y="1388"/>
      <point x="818" y="1275" type="qcurve" smooth="yes"/>
      <point x="818" y="1181"/>
      <point x="706" y="1064"/>
      <point x="628" y="1064" type="qcurve" smooth="yes"/>
      <point x="598" y="1064"/>
      <point x="539" y="1073"/>
      <point x="523" y="1077" type="qcurve"/>
      <point x="523" y="957" type="line"/>
    </contour>
  </outline>
</glyph>
<glyph name="breveinvertedcomb" format="2">
  <advance width="1024"/>
  <unicode hex="030F"/>
  <outline>
    <contour>
      <point x="238" y="1188" type="qcurve"/>
      <point x="160" y="1241" type="line"/>
      <point x="175" y="1334"/>
      <point x="386" y="1508"/>
      <point x="511" y="1508" type="qcurve"/>
      <point x="640" y="1508"/>
      <point x="851" y="1334"/>
      <point x="864" y="1241" type="qcurve"/>
      <point x="786" y="1188" type="line"/>
      <point x="759" y="1242"/>
      <point x="611" y="1352"/>
      <point x="512" y="1352" type="qcurve"/>
      <point x="415" y="1352"/>
      <point x="267" y="1242"/>
    </contour>
  </outline>
</glyph>
<glyph name="dblgravecomb" format="2">
  <advance width="1024"/>
  <unicode hex="0311"/>
  <outline>
    <contour>
      <point x="120" y="1473" type="qcurve"/>
      <point x="120" y="1513"/>
      <point x="177" y="1558"/>
      <point x="213" y="1558" type="qcurve" smooth="yes"/>
      <point x="255" y="1558"/>
      <point x="312" y="1505"/>
      <point x="346" y="1459" type="qcurve" smooth="yes"/>
      <point x="527" y="1211" type="line"/>
      <point x="440" y="1132" type="line"/>
      <point x="213" y="1334" type="line" smooth="yes"/>
      <point x="180" y="1364"/>
      <point x="120" y="1435"/>
    </contour>
    <contour>
      <point x="517" y="1473" type="qcurve"/>
      <point x="517" y="1513"/>
      <point x="574" y="1558"/>
      <point x="610" y="1558" type="qcurve" smooth="yes"/>
      <point x="652" y="1558"/>
      <point x="710" y="1504"/>
      <point x="744" y="1458" type="qcurve" smooth="yes"/>
      <point x="924" y="1211" type="line"/>
      <point x="837" y="1132" type="line"/>
      <point x="610" y="1334" type="line" smooth="yes"/>
      <point x="577" y="1364"/>
      <point x="517" y="1435"/>
    </contour>
  </outline>
</glyph>
<glyph name="commaaccentcomb" format="2">
  <advance width="1024"/>
  <unicode hex="0326"/>
  <outline>
    <contour>
      <point x="362" y="-620" type="line"/>
      <point x="402" y="-590"/>
      <point x="507" y="-475"/>
      <point x="521" y="-415" type="qcurve"/>
      <point x="462" y="-414"/>
      <point x="385" y="-342"/>
      <point x="385" y="-285" type="qcurve" smooth="yes"/>
      <point x="385" y="-229"/>
      <point x="463" y="-147"/>
      <point x="524" y="-147" type="qcurve" smooth="yes"/>
      <point x="581" y="-147"/>
      <point x="663" y="-220"/>
      <point x="663" y="-294" type="qcurve" smooth="yes"/>
      <point x="663" y="-411"/>
      <point x="510" y="-623"/>
      <point x="415" y="-682" type="qcurve"/>
    </contour>
  </outline>
</glyph>
<glyph name="Germandbls" format="2">
  <advance width="1449"/>
  <unicode hex="1E9E"/>
  <outline>
    <contour>
      <point x="178" y="1136" type="qcurve" smooth="yes"/>
      <point x="178" y="25" type="line" smooth="yes"/>
      <point x="178" y="-66"/>
      <point x="86" y="-163"/>
      <point x="6" y="-163" type="qcurve" smooth="yes"/>
      <point x="-7" y="-163"/>
      <point x="-32" y="-161"/>
      <point x="-44" y="-158" type="qcurve"/>
      <point x="-58" y="-342" type="line"/>
      <point x="-43" y="-344"/>
      <point x="-10" y="-346"/>
      <point x="6" y="-346" type="qcurve" smooth="yes"/>
      <point x="168" y="-346"/>
      <point x="370" y="-146"/>
      <point x="370" y="25" type="qcurve" smooth="yes"/>
      <point x="370" y="1076" type="line" smooth="yes"/>
      <point x="370" y="1209"/>
      <point x="462" y="1348"/>
      <point x="569" y="1348" type="qcurve" smooth="yes"/>
      <point x="650" y="1348"/>
      <point x="764" y="1273"/>
      <point x="764" y="1200" type="qcurve" smooth="yes"/>
      <point x="764" y="1135"/>
      <point x="524" y="978"/>
      <point x="524" y="882" type="qcurve" smooth="yes"/>
      <point x="524" y="783"/>
      <point x="642" y="669"/>
      <point x="869" y="584" type="qcurve" smooth="yes"/>
      <point x="1070" y="509"/>
      <point x="1202" y="427"/>
      <point x="1202" y="330" type="qcurve" smooth="yes"/>
      <point x="1202" y="241"/>
      <point x="1064" y="135"/>
      <point x="929" y="135" type="qcurve" smooth="yes"/>
      <point x="793" y="135"/>
      <point x="668" y="238"/>
      <point x="668" y="338" type="qcurve" smooth="yes"/>
      <point x="668" y="350" type="line"/>
      <point x="465" y="350" type="line"/>
      <point x="465" y="338" type="line" smooth="yes"/>
      <point x="465" y="152"/>
      <point x="700" y="-30"/>
      <point x="940" y="-30" type="qcurve" smooth="yes"/>
      <point x="1156" y="-30"/>
      <point x="1399" y="190"/>
      <point x="1399" y="336" type="qcurve" smooth="yes"/>
      <point x="1399" y="486"/>
      <point x="1199" y="666"/>
      <point x="1014" y="733" type="qcurve" smooth="yes"/>
      <point x="816" y="805"/>
      <point x="733" y="863"/>
      <point x="733" y="914" type="qcurve" smooth="yes"/>
      <point x="733" y="942"/>
      <point x="959" y="1076"/>
      <point x="959" y="1210" type="qcurve" smooth="yes"/>
      <point x="959" y="1331"/>
      <point x="743" y="1510"/>
      <point x="574" y="1510" type="qcurve" smooth="yes"/>
      <point x="399" y="1510"/>
      <point x="178" y="1326"/>
    </contour>
  </outline>
</glyph>
<glyph name="endash" format="2">
  <advance width="1024"/>
  <unicode hex="2013"/>
  <outline>
    <contour>
      <point x="0" y="562" type="line"/>
      <point x="0" y="700" type="line"/>
      <point x="503" y="702" type="line"/>
      <point x="1024" y="700" type="line"/>
      <point x="1024" y="562" type="line"/>
      <point x="503" y="556" type="line"/>
    </contour>
  </outline>
</glyph>
<glyph name="emdash" format="2">
  <advance width="2048"/>
  <unicode hex="2014"/>
  <outline>
    <contour>
      <point x="256" y="562" type="line"/>
      <point x="256" y="700" type="line"/>
      <point x="1024" y="702" type="line"/>
      <point x="1792" y="700" type="line"/>
      <point x="1792" y="562" type="line"/>
      <point x="1024" y="556" type="line"/>
    </contour>
  </outline>
</glyph>
<glyph name="horizontalbar" format="2">
  <advance width="656"/>
  <unicode hex="2015"/>
  <outline>
    <contour>
      <point x="270" y="636" type="line"/>
      <point x="8" y="636" type="line"/>
      <point x="20" y="782" type="line"/>
      <point x="314" y="782" type="line"/>
      <point x="625" y="782" type="line"/>
      <point x="625" y="636" type="line"/>
    </contour>
  </outline>
</glyph>
<glyph name="quoteleft" format="2">
  <advance width="410"/>
  <unicode hex="2018"/>
  <outline>
    <contour>
      <point x="97" y="1073" type="line"/>
      <point x="280" y="1073" type="line"/>
      <point x="280" y="1197" type="line"/>
      <point x="280.0" y="1277.597014925373"/>
      <point x="329.7313432835821" y="1417.3283582089553"/>
      <point x="376" y="1483" type="qcurve"/>
      <point x="271" y="1556" type="line"/>
      <point x="188.16417910447763" y="1488.089552238806"/>
      <point x="97.0" y="1284.2985074626865"/>
      <point x="97" y="1194" type="qcurve"/>
    </contour>
  </outline>
</glyph>
<glyph name="quoteright" format="2">
  <advance width="410"/>
  <unicode hex="2019"/>
  <outline>
    <contour>
      <point x="328" y="1536" type="line"/>
      <point x="144" y="1536" type="line"/>
      <point x="144" y="1405" type="line" smooth="yes"/>
      <point x="144.0" y="1324.402985074627"/>
      <point x="95.01492537313433" y="1184.6716417910447"/>
      <point x="48" y="1119" type="qcurve"/>
      <point x="154" y="1046" type="line"/>
      <point x="236.08955223880596" y="1113.910447761194"/>
      <point x="328.0" y="1317.7014925373135"/>
      <point x="328" y="1408" type="qcurve" smooth="yes"/>
    </contour>
  </outline>
</glyph>
<glyph name="quotesinglbase" format="2">
  <advance width="600"/>
  <unicode hex="201A"/>
  <outline>
    <contour>
      <point x="147" y="-229" type="line"/>
      <point x="187" y="-199"/>
      <point x="291" y="-81"/>
      <point x="306" y="-14" type="qcurve"/>
      <point x="235" y="-14"/>
      <point x="155" y="61"/>
      <point x="155" y="120" type="qcurve" smooth="yes"/>
      <point x="155" y="178"/>
      <point x="236" y="255"/>
      <point x="299" y="255" type="qcurve" smooth="yes"/>
      <point x="358" y="255"/>
      <point x="454" y="159"/>
      <point x="454" y="82" type="qcurve" smooth="yes"/>
      <point x="454" y="-40"/>
      <point x="295" y="-228"/>
      <point x="190" y="-278" type="qcurve"/>
    </contour>
  </outline>
</glyph>
<glyph name="quotedblleft" format="2">
  <advance width="1030"/>
  <unicode hex="201C"/>
  <outline>
    <contour>
      <point x="475" y="1506" type="line"/>
      <point x="435" y="1476"/>
      <point x="331" y="1358"/>
      <point x="316" y="1291" type="qcurve"/>
      <point x="387" y="1291"/>
      <point x="467" y="1216"/>
      <point x="467" y="1157" type="qcurve" smooth="yes"/>
      <point x="467" y="1099"/>
      <point x="386" y="1023"/>
      <point x="323" y="1023" type="qcurve" smooth="yes"/>
      <point x="264" y="1023"/>
      <point x="168" y="1118"/>
      <point x="168" y="1195" type="qcurve" smooth="yes"/>
      <point x="168" y="1317"/>
      <point x="327" y="1505"/>
      <point x="432" y="1555" type="qcurve"/>
    </contour>
    <contour>
      <point x="905" y="1506" type="line"/>
      <point x="865" y="1476"/>
      <point x="761" y="1358"/>
      <point x="746" y="1291" type="qcurve"/>
      <point x="817" y="1291"/>
      <point x="897" y="1216"/>
      <point x="897" y="1157" type="qcurve" smooth="yes"/>
      <point x="897" y="1099"/>
      <point x="816" y="1023"/>
      <point x="753" y="1023" type="qcurve" smooth="yes"/>
      <point x="694" y="1023"/>
      <point x="598" y="1118"/>
      <point x="598" y="1195" type="qcurve" smooth="yes"/>
      <point x="598" y="1317"/>
      <point x="757" y="1505"/>
      <point x="862" y="1555" type="qcurve"/>
    </contour>
  </outline>
</glyph>
<glyph name="quotedblright" format="2">
  <advance width="830"/>
  <unicode hex="201D"/>
  <outline>
    <contour>
      <point x="318" y="1458" type="line"/>
      <point x="134" y="1458" type="line"/>
      <point x="134" y="1327" type="line" smooth="yes"/>
      <point x="134.0" y="1246"/>
      <point x="86" y="1107"/>
      <point x="39" y="1041" type="qcurve"/>
      <point x="145" y="968" type="line"/>
      <point x="227" y="1036"/>
      <point x="318.0" y="1240"/>
      <point x="318" y="1330" type="qcurve" smooth="yes"/>
    </contour>
    <contour>
      <point x="738" y="1458" type="line"/>
      <point x="554" y="1458" type="line"/>
      <point x="554" y="1327" type="line" smooth="yes"/>
      <point x="554.0" y="1246"/>
      <point x="506" y="1107"/>
      <point x="459" y="1041" type="qcurve"/>
      <point x="565" y="968" type="line"/>
      <point x="647" y="1036"/>
      <point x="738.0" y="1240"/>
      <point x="738" y="1330" type="qcurve" smooth="yes"/>
    </contour>
  </outline>
</glyph>
<glyph name="quotedblbase" format="2">
  <advance width="1030"/>
  <unicode hex="201E"/>
  <outline>
    <contour>
      <point x="147" y="-229" type="line"/>
      <point x="187" y="-199"/>
      <point x="291" y="-81"/>
      <point x="306" y="-14" type="qcurve"/>
      <point x="235" y="-14"/>
      <point x="155" y="61"/>
      <point x="155" y="120" type="qcurve" smooth="yes"/>
      <point x="155" y="178"/>
      <point x="236" y="255"/>
      <point x="299" y="255" type="qcurve" smooth="yes"/>
      <point x="358" y="255"/>
      <point x="454" y="159"/>
      <point x="454" y="82" type="qcurve" smooth="yes"/>
      <point x="454" y="-40"/>
      <point x="295" y="-228"/>
      <point x="190" y="-278" type="qcurve"/>
    </contour>
    <contour>
      <point x="577" y="-229" type="line"/>
      <point x="617" y="-199"/>
      <point x="721" y="-81"/>
      <point x="736" y="-14" type="qcurve"/>
      <point x="665" y="-14"/>
      <point x="585" y="61"/>
      <point x="585" y="120" type="qcurve" smooth="yes"/>
      <point x="585" y="178"/>
      <point x="666" y="255"/>
      <point x="729" y="255" type="qcurve" smooth="yes"/>
      <point x="788" y="255"/>
      <point x="884" y="159"/>
      <point x="884" y="82" type="qcurve" smooth="yes"/>
      <point x="884" y="-40"/>
      <point x="725" y="-228"/>
      <point x="620" y="-278" type="qcurve"/>
    </contour>
  </outline>
</glyph>
<glyph name="dagger" format="2">
  <advance width="968"/>
  <unicode hex="2020"/>
  <outline>
    <contour>
      <point x="469" y="-540" type="line"/>
      <point x="391" y="-58" type="line"/>
      <point x="415" y="550" type="line"/>
      <point x="413" y="830" type="line"/>
      <point x="381" y="1438" type="line"/>
      <point x="431" y="1503" type="line"/>
      <point x="511" y="1506" type="line"/>
      <point x="557" y="1438" type="line"/>
      <point x="533" y="830" type="line"/>
      <point x="535" y="550" type="line"/>
      <point x="557" y="-58" type="line"/>
      <point x="489" y="-540" type="line"/>
    </contour>
    <contour>
      <point x="72" y="852" type="line"/>
      <point x="72" y="1000" type="line"/>
      <point x="475" y="992" type="line"/>
      <point x="896" y="1000" type="line"/>
      <point x="896" y="852" type="line"/>
      <point x="475" y="856" type="line"/>
    </contour>
  </outline>
</glyph>
<glyph name="daggerdbl" format="2">
  <advance width="996"/>
  <unicode hex="2021"/>
  <outline>
    <contour>
      <point x="481" y="-540" type="line"/>
      <point x="403" y="-58" type="line"/>
      <point x="427" y="550" type="line"/>
      <point x="425" y="830" type="line"/>
      <point x="393" y="1438" type="line"/>
      <point x="443" y="1503" type="line"/>
      <point x="523" y="1506" type="line"/>
      <point x="569" y="1438" type="line"/>
      <point x="545" y="830" type="line"/>
      <point x="547" y="550" type="line"/>
      <point x="569" y="-58" type="line"/>
      <point x="501" y="-540" type="line"/>
    </contour>
    <contour>
      <point x="84" y="852" type="line"/>
      <point x="84" y="1000" type="line"/>
      <point x="487" y="992" type="line"/>
      <point x="908" y="1000" type="line"/>
      <point x="908" y="852" type="line"/>
      <point x="487" y="856" type="line"/>
    </contour>
    <contour>
      <point x="88" y="423" type="line"/>
      <point x="88" y="571" type="line"/>
      <point x="491" y="563" type="line"/>
      <point x="912" y="571" type="line"/>
      <point x="912" y="423" type="line"/>
      <point x="491" y="427" type="line"/>
    </contour>
  </outline>
</glyph>
<glyph name="perthousand" format="2">
  <advance width="2958"/>
  <unicode hex="2030"/>
  <outline>
    <contour>
      <point x="74" y="1081" type="qcurve" smooth="yes"/>
      <point x="74" y="1273"/>
      <point x="291" y="1522"/>
      <point x="467" y="1522" type="qcurve" smooth="yes"/>
      <point x="644" y="1522"/>
      <point x="864" y="1291"/>
      <point x="864" y="1087" type="qcurve" smooth="yes"/>
      <point x="864" y="896"/>
      <point x="648" y="641"/>
      <point x="472" y="641" type="qcurve" smooth="yes"/>
      <point x="295" y="641"/>
      <point x="74" y="876"/>
    </contour>
    <contour>
      <point x="237" y="1098" type="qcurve" smooth="yes"/>
      <point x="237" y="947"/>
      <point x="362" y="761"/>
      <point x="466" y="761" type="qcurve" smooth="yes"/>
      <point x="577" y="761"/>
      <point x="696" y="928"/>
      <point x="696" y="1087" type="qcurve" smooth="yes"/>
      <point x="696" y="1232"/>
      <point x="572" y="1398"/>
      <point x="467" y="1398" type="qcurve" smooth="yes"/>
      <point x="355" y="1398"/>
      <point x="236" y="1249"/>
    </contour>
    <contour>
      <point x="381" y="25" type="line"/>
      <point x="1540" y="1529" type="line"/>
      <point x="1642" y="1464" type="line"/>
      <point x="483" y="-40" type="line"/>
    </contour>
    <contour>
      <point x="1174" y="390" type="qcurve" smooth="yes"/>
      <point x="1174" y="582"/>
      <point x="1391" y="851"/>
      <point x="1567" y="851" type="qcurve" smooth="yes"/>
      <point x="1744" y="851"/>
      <point x="1964" y="600"/>
      <point x="1964" y="396" type="qcurve" smooth="yes"/>
      <point x="1964" y="225"/>
      <point x="1748" y="-30"/>
      <point x="1572" y="-30" type="qcurve" smooth="yes"/>
      <point x="1395" y="-30"/>
      <point x="1174" y="205"/>
    </contour>
    <contour>
      <point x="1337" y="407" type="qcurve" smooth="yes"/>
      <point x="1337" y="276"/>
      <point x="1462" y="91"/>
      <point x="1566" y="91" type="qcurve" smooth="yes"/>
      <point x="1677" y="91"/>
      <point x="1796" y="257"/>
      <point x="1796" y="396" type="qcurve" smooth="yes"/>
      <point x="1796" y="541"/>
      <point x="1672" y="726"/>
      <point x="1567" y="726" type="qcurve" smooth="yes"/>
      <point x="1455" y="726"/>
      <point x="1337" y="558"/>
    </contour>
    <contour>
      <point x="2094" y="390" type="qcurve" smooth="yes"/>
      <point x="2094" y="582"/>
      <point x="2311" y="851"/>
      <point x="2487" y="851" type="qcurve" smooth="yes"/>
      <point x="2664" y="851"/>
      <point x="2884" y="600"/>
      <point x="2884" y="396" type="qcurve" smooth="yes"/>
      <point x="2884" y="225"/>
      <point x="2668" y="-30"/>
      <point x="2492" y="-30" type="qcurve" smooth="yes"/>
      <point x="2315" y="-30"/>
      <point x="2094" y="205"/>
    </contour>
    <contour>
      <point x="2257" y="407" type="qcurve" smooth="yes"/>
      <point x="2257" y="276"/>
      <point x="2382" y="91"/>
      <point x="2486" y="91" type="qcurve" smooth="yes"/>
      <point x="2597" y="91"/>
      <point x="2716" y="257"/>
      <point x="2716" y="396" type="qcurve" smooth="yes"/>
      <point x="2716" y="541"/>
      <point x="2592" y="726"/>
      <point x="2487" y="726" type="qcurve" smooth="yes"/>
      <point x="2375" y="726"/>
      <point x="2257" y="558"/>
    </contour>
  </outline>
</glyph>
<glyph name="minute" format="2">
  <advance width="654"/>
  <unicode hex="2032"/>
  <outline>
    <contour>
      <point x="134.0" y="964.0" type="line"/>
      <point x="358" y="1455" type="line" smooth="yes"/>
      <point x="377" y="1497"/>
      <point x="464" y="1542"/>
      <point x="517" y="1512" type="qcurve" smooth="yes"/>
      <point x="569" y="1484"/>
      <point x="581" y="1382.0"/>
      <point x="551" y="1348" type="qcurve" smooth="yes"/>
      <point x="204" y="964.0" type="line"/>
    </contour>
  </outline>
</glyph>
<glyph name="second" format="2">
  <advance width="1034"/>
  <unicode hex="2033"/>
  <outline>
    <contour>
      <point x="134" y="965" type="line"/>
      <point x="358" y="1456" type="line" smooth="yes"/>
      <point x="377" y="1498"/>
      <point x="464" y="1543"/>
      <point x="517" y="1513" type="qcurve" smooth="yes"/>
      <point x="569" y="1485"/>
      <point x="581" y="1383"/>
      <point x="551" y="1349" type="qcurve" smooth="yes"/>
      <point x="204" y="965" type="line"/>
    </contour>
    <contour>
      <point x="514" y="965" type="line"/>
      <point x="738" y="1456" type="line" smooth="yes"/>
      <point x="757" y="1498"/>
      <point x="844" y="1543"/>
      <point x="897" y="1513" type="qcurve" smooth="yes"/>
      <point x="949" y="1485"/>
      <point x="961" y="1383"/>
      <point x="931" y="1349" type="qcurve" smooth="yes"/>
      <point x="584" y="965" type="line"/>
    </contour>
  </outline>
</glyph>
<glyph name="guilsinglleft" format="2">
  <advance width="615"/>
  <unicode hex="2039"/>
  <guideline x="0.0" y="901.0" angle="0.0" identifier="Amp5Ormvx4"/>
  <guideline x="0.0" y="555.0" angle="0.0" identifier="JDX5vz3jKp"/>
  <outline>
    <contour>
      <point x="545" y="949" type="line"/>
      <point x="403" y="949" type="line"/>
      <point x="108" y="561" type="line"/>
      <point x="108" y="548" type="line"/>
      <point x="284" y="547" type="line"/>
    </contour>
    <contour>
      <point x="284" y="556" type="line"/>
      <point x="108" y="555" type="line"/>
      <point x="108" y="542" type="line"/>
      <point x="403" y="153" type="line"/>
      <point x="545" y="153" type="line"/>
    </contour>
  </outline>
</glyph>
<glyph name="guilsinglright" format="2">
  <advance width="615"/>
  <unicode hex="203A"/>
  <guideline x="0.0" y="98.0" angle="0.0" identifier="pKYcnsphi7"/>
  <guideline x="0.0" y="443.0" angle="0.0" identifier="NYKo5KQBzE"/>
  <outline>
    <contour>
      <point x="90" y="153" type="line"/>
      <point x="232" y="153" type="line"/>
      <point x="527" y="541" type="line"/>
      <point x="527" y="554" type="line"/>
      <point x="351" y="555" type="line"/>
    </contour>
    <contour>
      <point x="90" y="949" type="line"/>
      <point x="351" y="546" type="line"/>
      <point x="527" y="547" type="line"/>
      <point x="527" y="560" type="line"/>
      <point x="232" y="949" type="line"/>
    </contour>
  </outline>
</glyph>
<glyph name="fraction" format="2">
  <advance width="931"/>
  <unicode hex="2044"/>
  <guideline x="0.0" y="901.0" angle="0.0" identifier="tcCoNUQTdD"/>
  <guideline x="0.0" y="555.0" angle="0.0" identifier="0lx51aIE0d"/>
  <outline>
    <contour>
      <point x="875" y="1249" type="line"/>
      <point x="771" y="1315" type="line"/>
      <point x="60" y="177" type="line"/>
      <point x="164" y="111" type="line"/>
    </contour>
  </outline>
</glyph>
<glyph name="commercialMinusSign" format="2">
  <advance width="834"/>
  <unicode hex="2052"/>
  <outline>
    <contour>
      <point x="60" y="-2" type="line"/>
      <point x="629" y="1538" type="line"/>
      <point x="770" y="1495" type="line"/>
      <point x="201" y="-45" type="line"/>
    </contour>
    <contour>
      <point x="477" y="121" type="qcurve" smooth="yes"/>
      <point x="477" y="179"/>
      <point x="558" y="265"/>
      <point x="621" y="265" type="qcurve" smooth="yes"/>
      <point x="684" y="265"/>
      <point x="765" y="179"/>
      <point x="765" y="121" type="qcurve" smooth="yes"/>
      <point x="765" y="64"/>
      <point x="684" y="-22"/>
      <point x="621" y="-22" type="qcurve" smooth="yes"/>
      <point x="558" y="-22"/>
      <point x="477" y="64"/>
    </contour>
    <contour>
      <point x="107" y="1374" type="qcurve" smooth="yes"/>
      <point x="107" y="1432"/>
      <point x="188" y="1518"/>
      <point x="251" y="1518" type="qcurve" smooth="yes"/>
      <point x="314" y="1518"/>
      <point x="395" y="1432"/>
      <point x="395" y="1374" type="qcurve" smooth="yes"/>
      <point x="395" y="1317"/>
      <point x="314" y="1231"/>
      <point x="251" y="1231" type="qcurve" smooth="yes"/>
      <point x="188" y="1231"/>
      <point x="107" y="1317"/>
    </contour>
  </outline>
</glyph>
<glyph name="coloncurrency" format="2">
  <advance width="1333"/>
  <unicode hex="20A1"/>
  <guideline x="0.0" y="1570.0" angle="0.0" identifier="0DwZ2nfhdf"/>
  <anchor x="720" y="0" name="bottom"/>
  <outline>
    <contour>
      <point x="992" y="1570" type="line"/>
      <point x="834" y="1570" type="line"/>
      <point x="561" y="-125" type="line"/>
      <point x="720" y="-125" type="line"/>
    </contour>
    <contour>
      <point x="710" y="1570" type="line"/>
      <point x="552" y="1570" type="line"/>
      <point x="279" y="-125" type="line"/>
      <point x="438" y="-125" type="line"/>
    </contour>
    <contour>
      <point x="115" y="682.0" type="line" smooth="yes"/>
      <point x="115" y="346.0"/>
      <point x="427" y="-30.0"/>
      <point x="661" y="-30.0" type="qcurve" smooth="yes"/>
      <point x="896" y="-30.0"/>
      <point x="1163.0" y="241"/>
      <point x="1163" y="426.0" type="qcurve" smooth="yes"/>
      <point x="1163" y="466.0" type="line"/>
      <point x="971" y="466.0" type="line"/>
      <point x="971" y="432.0" type="line" smooth="yes"/>
      <point x="971.0" y="311.0"/>
      <point x="824" y="134.0"/>
      <point x="661" y="134.0" type="qcurve" smooth="yes"/>
      <point x="499" y="134.0"/>
      <point x="301" y="426"/>
      <point x="301" y="682.0" type="qcurve" smooth="yes"/>
      <point x="301" y="774.0" type="line" smooth="yes"/>
      <point x="301" y="1030"/>
      <point x="499" y="1322.0"/>
      <point x="661" y="1322.0" type="qcurve" smooth="yes"/>
      <point x="824" y="1322.0"/>
      <point x="971.0" y="1161.0"/>
      <point x="971" y="1041.0" type="qcurve" smooth="yes"/>
      <point x="971" y="990.0" type="line"/>
      <point x="1163" y="990.0" type="line"/>
      <point x="1163" y="1040.0" type="line" smooth="yes"/>
      <point x="1163.0" y="1233"/>
      <point x="896" y="1486.0"/>
      <point x="661" y="1486.0" type="qcurve" smooth="yes"/>
      <point x="427" y="1486.0"/>
      <point x="115" y="1110.0"/>
      <point x="115" y="774.0" type="qcurve" smooth="yes"/>
    </contour>
  </outline>
</glyph>
<glyph name="naira" format="2">
  <advance width="1349"/>
  <unicode hex="20A6"/>
  <outline>
    <contour>
      <point x="9" y="910" type="line"/>
      <point x="251" y="910" type="line"/>
      <point x="251" y="915" type="line"/>
      <point x="1097" y="915" type="line"/>
      <point x="1097" y="910" type="line"/>
      <point x="1339" y="912" type="line"/>
      <point x="1339" y="1049" type="line"/>
      <point x="1097" y="1047" type="line"/>
      <point x="1097" y="1037" type="line"/>
      <point x="251" y="1037" type="line"/>
      <point x="251" y="1047" type="line"/>
      <point x="9" y="1047" type="line"/>
    </contour>
    <contour>
      <point x="9" y="480" type="line"/>
      <point x="251" y="480" type="line"/>
      <point x="251" y="490" type="line"/>
      <point x="1097" y="490" type="line"/>
      <point x="1097" y="480" type="line"/>
      <point x="1339" y="482" type="line"/>
      <point x="1339" y="619" type="line"/>
      <point x="1097" y="617" type="line"/>
      <point x="1097" y="612" type="line"/>
      <point x="251" y="612" type="line"/>
      <point x="251" y="617" type="line"/>
      <point x="9" y="617" type="line"/>
    </contour>
    <contour>
      <point x="1176" y="1456" type="line"/>
      <point x="1026" y="1456" type="line"/>
      <point x="1026" y="351" type="line"/>
      <point x="1036" y="240" type="line"/>
      <point x="1016" y="240" type="line"/>
      <point x="963" y="337" type="line"/>
      <point x="369" y="1456" type="line"/>
      <point x="173" y="1456" type="line"/>
      <point x="173" y="0" type="line"/>
      <point x="330" y="0" type="line"/>
      <point x="330" y="1125" type="line"/>
      <point x="320" y="1233" type="line"/>
      <point x="332" y="1233" type="line"/>
      <point x="374" y="1142" type="line"/>
      <point x="980" y="0" type="line"/>
      <point x="1176" y="0" type="line"/>
    </contour>
  </outline>
</glyph>
<glyph name="peseta" format="2">
  <advance width="1681"/>
  <unicode hex="20A7"/>
  <outline>
    <contour>
      <point x="545" y="565" type="line"/>
      <point x="791.2686567164179" y="565.0"/>
      <point x="1008.0" y="819.2089552238806"/>
      <point x="1008" y="1011" type="qcurve"/>
      <point x="1008.0" y="1202.044776119403"/>
      <point x="791.2686567164179" y="1456.0"/>
      <point x="545" y="1456" type="qcurve"/>
      <point x="167" y="1456" type="line"/>
      <point x="167" y="0" type="line"/>
      <point x="352" y="0" type="line"/>
      <point x="352" y="1304" type="line"/>
      <point x="545" y="1304" type="line"/>
      <point x="718.1343283582089" y="1304.0"/>
      <point x="822.0" y="1120.9402985074626"/>
      <point x="822" y="1009" type="qcurve"/>
      <point x="822.0" y="898.5522388059702"/>
      <point x="718.1343283582089" y="717.0"/>
      <point x="545" y="717" type="qcurve"/>
      <point x="311" y="717" type="line"/>
      <point x="311" y="565" type="line"/>
    </contour>
    <contour>
      <point x="1534" y="1082" type="line"/>
      <point x="950" y="1082" type="line"/>
      <point x="950" y="940" type="line"/>
      <point x="1534" y="940" type="line"/>
    </contour>
    <contour>
      <point x="1147" y="1345" type="line"/>
      <point x="1147" y="269" type="line"/>
      <point x="1147.0" y="107.05970149253733"/>
      <point x="1294.7611940298507" y="-20.0"/>
      <point x="1397" y="-20" type="qcurve" smooth="yes"/>
      <point x="1445.5074626865671" y="-20.0"/>
      <point x="1517.358208955224" y="-6.716417910447761"/>
      <point x="1539" y="0" type="qcurve"/>
      <point x="1538" y="151" type="line"/>
      <point x="1525.313432835821" y="148.01492537313433"/>
      <point x="1474.134328358209" y="139.0"/>
      <point x="1451" y="139" type="qcurve" smooth="yes"/>
      <point x="1404.7313432835822" y="139.0"/>
      <point x="1332.0" y="185.16417910447763"/>
      <point x="1332" y="268" type="qcurve"/>
      <point x="1332" y="1345" type="line"/>
    </contour>
  </outline>
</glyph>
<glyph name="Euro" format="2">
  <advance width="1151"/>
  <unicode hex="20AC"/>
  <outline>
    <contour>
      <point x="815" y="136" type="qcurve" smooth="yes"/>
      <point x="656.7910447761194" y="136.0"/>
      <point x="466.0" y="345.0746268656717"/>
      <point x="466" y="560" type="qcurve"/>
      <point x="466" y="895" type="line"/>
      <point x="466.0" y="1109.9253731343283"/>
      <point x="654.2985074626865" y="1319.0"/>
      <point x="814" y="1319" type="qcurve" smooth="yes"/>
      <point x="871.4626865671642" y="1319.0"/>
      <point x="983.7462686567164" y="1299.6716417910447"/>
      <point x="1033" y="1284" type="qcurve"/>
      <point x="1053" y="1445" type="line"/>
      <point x="991.8059701492538" y="1459.1791044776119"/>
      <point x="874.6865671641791" y="1476.0"/>
      <point x="812" y="1476" type="qcurve" smooth="yes"/>
      <point x="573.9402985074627" y="1476.0"/>
      <point x="273.0" y="1182.55223880597"/>
      <point x="273" y="893" type="qcurve"/>
      <point x="273" y="560" type="line"/>
      <point x="273.0" y="271.9402985074627"/>
      <point x="575.6865671641791" y="-20.0"/>
      <point x="813" y="-20" type="qcurve" smooth="yes"/>
      <point x="874.9402985074627" y="-20.0"/>
      <point x="997.0298507462687" y="-4.17910447761194"/>
      <point x="1053" y="10" type="qcurve"/>
      <point x="1033" y="170" type="line"/>
      <point x="983.0" y="153.5820895522388"/>
      <point x="872.4626865671642" y="136.0"/>
    </contour>
    <contour>
      <point x="850" y="927" type="line"/>
      <point x="95" y="927" type="line"/>
      <point x="95" y="802" type="line"/>
      <point x="850" y="802" type="line"/>
    </contour>
    <contour>
      <point x="850" y="666" type="line"/>
      <point x="95" y="666" type="line"/>
      <point x="95" y="542" type="line"/>
      <point x="850" y="542" type="line"/>
    </contour>
  </outline>
</glyph>
<glyph name="uni20AD" format="2">
  <advance width="1136"/>
  <unicode hex="20AD"/>
  <outline>
    <contour>
      <point x="1081" y="819" type="line"/>
      <point x="515" y="819" type="line"/>
      <point x="427" y="708" type="line"/>
      <point x="307" y="708" type="line"/>
      <point x="307" y="819" type="line"/>
      <point x="31" y="819" type="line"/>
      <point x="31" y="651" type="line"/>
      <point x="385" y="651" type="line"/>
      <point x="421" y="697" type="line"/>
      <point x="609" y="697" type="line"/>
      <point x="635" y="651" type="line"/>
      <point x="1081" y="651" type="line"/>
    </contour>
    <contour>
      <point x="170" y="0" type="line"/>
      <point x="357" y="0" type="line"/>
      <point x="357" y="500" type="line"/>
      <point x="1097" y="1456" type="line"/>
      <point x="875" y="1456" type="line"/>
      <point x="357" y="757" type="line"/>
      <point x="357" y="1456" type="line"/>
      <point x="170" y="1456" type="line"/>
    </contour>
    <contour>
      <point x="905" y="0" type="line"/>
      <point x="1131" y="0" type="line"/>
      <point x="597" y="901" type="line"/>
      <point x="481" y="756" type="line"/>
    </contour>
  </outline>
</glyph>
<glyph name="uni20B1" format="2">
  <advance width="1498"/>
  <unicode hex="20B1"/>
  <outline>
    <contour>
      <point x="754" y="421.0" type="line" smooth="yes"/>
      <point x="1009.0" y="421.0"/>
      <point x="1284" y="725.0"/>
      <point x="1284.0" y="955" type="qcurve" smooth="yes"/>
      <point x="1284" y="1203"/>
      <point x="1010.0" y="1456.0"/>
      <point x="755" y="1456.0" type="qcurve" smooth="yes"/>
      <point x="229" y="1456" type="line"/>
      <point x="229" y="0" type="line"/>
      <point x="417" y="0" type="line"/>
      <point x="417" y="1300" type="line"/>
      <point x="752.0" y="1300" type="line" smooth="yes"/>
      <point x="936" y="1300"/>
      <point x="1098.0" y="1103"/>
      <point x="1098.0" y="945" type="qcurve" smooth="yes"/>
      <point x="1098" y="790"/>
      <point x="936" y="577"/>
      <point x="752.0" y="577" type="qcurve" smooth="yes"/>
      <point x="327.0" y="577" type="line"/>
      <point x="327" y="421.0" type="line"/>
    </contour>
    <contour>
      <point x="79" y="990" type="line"/>
      <point x="321" y="990" type="line"/>
      <point x="321" y="995" type="line"/>
      <point x="1177" y="995" type="line"/>
      <point x="1177" y="990" type="line"/>
      <point x="1469" y="992" type="line"/>
      <point x="1469" y="1129" type="line"/>
      <point x="1157" y="1127" type="line"/>
      <point x="1157" y="1112" type="line"/>
      <point x="321" y="1112" type="line"/>
      <point x="321" y="1127" type="line"/>
      <point x="79" y="1127" type="line"/>
    </contour>
    <contour>
      <point x="79" y="720" type="line"/>
      <point x="321" y="720" type="line"/>
      <point x="321" y="734" type="line"/>
      <point x="1137" y="734" type="line"/>
      <point x="1137" y="720" type="line"/>
      <point x="1469" y="722" type="line"/>
      <point x="1469" y="859" type="line"/>
      <point x="1177" y="857" type="line"/>
      <point x="1177" y="852" type="line"/>
      <point x="321" y="852" type="line"/>
      <point x="321" y="857" type="line"/>
      <point x="79" y="857" type="line"/>
    </contour>
  </outline>
</glyph>
<glyph name="uni20B2" format="2">
  <advance width="1395"/>
  <unicode hex="20B2"/>
  <outline>
    <contour>
      <point x="771" y="1559" type="line"/>
      <point x="622" y="1559" type="line"/>
      <point x="622" y="-125" type="line"/>
      <point x="771" y="-125" type="line"/>
    </contour>
    <contour>
      <point x="1245" y="725" type="line"/>
      <point x="716" y="725" type="line"/>
      <point x="716" y="569" type="line"/>
      <point x="1053" y="569" type="line"/>
      <point x="1053" y="243" type="line"/>
      <point x="1024.641791044776" y="210.16417910447763"/>
      <point x="884.7313432835821" y="137.0"/>
      <point x="731" y="137" type="qcurve" smooth="yes"/>
      <point x="545.179104477612" y="137.0"/>
      <point x="316.0" y="421.2537313432836"/>
      <point x="316" y="672" type="qcurve" smooth="yes"/>
      <point x="316" y="787" type="line" smooth="yes"/>
      <point x="316.0" y="1031.0298507462687"/>
      <point x="506.5074626865672" y="1318.0"/>
      <point x="708" y="1318" type="qcurve" smooth="yes"/>
      <point x="874.4179104477612" y="1318.0"/>
      <point x="1031.8507462686566" y="1147.1641791044776"/>
      <point x="1052" y="1030" type="qcurve"/>
      <point x="1245" y="1030" type="line"/>
      <point x="1217.3880597014925" y="1222.5373134328358"/>
      <point x="956.5074626865671" y="1476.0"/>
      <point x="708" y="1476" type="qcurve" smooth="yes"/>
      <point x="427.4029850746269" y="1476.0"/>
      <point x="122.0" y="1108.8805970149253"/>
      <point x="122" y="785" type="qcurve" smooth="yes"/>
      <point x="122" y="672" type="line" smooth="yes"/>
      <point x="122.0" y="346.62686567164184"/>
      <point x="465.0746268656717" y="-20.0"/>
      <point x="730" y="-20" type="qcurve" smooth="yes"/>
      <point x="973.2835820895523" y="-20.0"/>
      <point x="1203.955223880597" y="132.2985074626866"/>
      <point x="1245" y="192" type="qcurve"/>
    </contour>
  </outline>
</glyph>
<glyph name="uni20B5" format="2">
  <advance width="1101"/>
  <unicode hex="20B5"/>
  <guideline x="0.0" y="-125.0" angle="0.0" identifier="1Am3eQoiKr"/>
  <outline>
    <contour>
      <point x="494" y="-190" type="line"/>
      <point x="664" y="-190" type="line"/>
      <point x="664" y="40" type="line"/>
      <point x="652" y="50" type="line"/>
      <point x="652" y="708" type="line"/>
      <point x="507" y="708" type="line"/>
      <point x="507" y="51" type="line"/>
      <point x="494" y="37" type="line"/>
    </contour>
    <contour>
      <point x="507" y="708" type="line"/>
      <point x="652" y="708" type="line"/>
      <point x="652" y="1359" type="line"/>
      <point x="657" y="1372" type="line"/>
      <point x="657" y="1582" type="line"/>
      <point x="497" y="1582" type="line"/>
      <point x="497" y="1372" type="line"/>
      <point x="507" y="1362" type="line"/>
    </contour>
    <contour>
      <point x="863" y="436" type="line" smooth="yes"/>
      <point x="863.0" y="302.0"/>
      <point x="718" y="122"/>
      <point x="600" y="122" type="qcurve" smooth="yes"/>
      <point x="450" y="122"/>
      <point x="296" y="311"/>
      <point x="296" y="464" type="qcurve" smooth="yes"/>
      <point x="296" y="1004" type="line" smooth="yes"/>
      <point x="296" y="1150"/>
      <point x="440" y="1329"/>
      <point x="587" y="1329" type="qcurve" smooth="yes"/>
      <point x="733" y="1329"/>
      <point x="862" y="1135"/>
      <point x="858" y="1030" type="qcurve" smooth="yes"/>
      <point x="858" y="1006" type="line"/>
      <point x="1052" y="1008" type="line"/>
      <point x="1051" y="1030" type="line" smooth="yes"/>
      <point x="1042" y="1236"/>
      <point x="801" y="1485"/>
      <point x="584" y="1485" type="qcurve" smooth="yes"/>
      <point x="365" y="1485"/>
      <point x="102" y="1216"/>
      <point x="102" y="1002" type="qcurve" smooth="yes"/>
      <point x="102" y="462" type="line" smooth="yes"/>
      <point x="102" y="237"/>
      <point x="365" y="-25"/>
      <point x="586" y="-25" type="qcurve" smooth="yes"/>
      <point x="800" y="-25"/>
      <point x="1042" y="243"/>
      <point x="1051" y="436" type="qcurve" smooth="yes"/>
      <point x="1052" y="458" type="line"/>
      <point x="863" y="460" type="line"/>
    </contour>
  </outline>
</glyph>
<glyph name="rupeeIndian" format="2">
  <advance width="1119"/>
  <unicode hex="20B9"/>
  <outline>
    <contour>
      <point x="48" y="1299" type="line"/>
      <point x="383" y="1299" type="line" smooth="yes"/>
      <point x="549.0" y="1299.0"/>
      <point x="679" y="1145"/>
      <point x="679" y="1019" type="qcurve" smooth="yes"/>
      <point x="679.0" y="885"/>
      <point x="537.0" y="732.0"/>
      <point x="383" y="732" type="qcurve" smooth="yes"/>
      <point x="48" y="732" type="line"/>
      <point x="48" y="576" type="line"/>
      <point x="383" y="576" type="line" smooth="yes"/>
      <point x="611.0" y="576.0"/>
      <point x="871.0" y="808.0"/>
      <point x="871" y="1019" type="qcurve" smooth="yes"/>
      <point x="871" y="1112"/>
      <point x="775" y="1272"/>
      <point x="718" y="1300" type="qcurve"/>
      <point x="716" y="1308" type="line"/>
      <point x="793" y="1300" type="line"/>
      <point x="1068" y="1300" type="line"/>
      <point x="1068" y="1456" type="line"/>
      <point x="48" y="1456" type="line"/>
    </contour>
    <contour>
      <point x="795" y="0" type="line"/>
      <point x="1009" y="0" type="line"/>
      <point x="554" y="654" type="line"/>
      <point x="348" y="654" type="line"/>
    </contour>
    <contour>
      <point x="48" y="936" type="line"/>
      <point x="1069" y="936" type="line"/>
      <point x="1069" y="1087" type="line"/>
      <point x="48" y="1087" type="line"/>
    </contour>
  </outline>
</glyph>
<glyph name="liraTurkish" format="2">
  <advance width="1176"/>
  <unicode hex="20BA"/>
  <outline>
    <contour>
      <point x="46" y="334" type="line"/>
      <point x="46" y="502" type="line"/>
      <point x="959" y="902" type="line"/>
      <point x="953" y="735" type="line"/>
    </contour>
    <contour>
      <point x="280" y="0" type="line"/>
      <point x="280" y="1456" type="line"/>
      <point x="462" y="1456" type="line"/>
      <point x="462" y="153" type="line"/>
      <point x="563" y="153" type="line" smooth="yes"/>
      <point x="771" y="153.0"/>
      <point x="954" y="362"/>
      <point x="958" y="521" type="qcurve" smooth="yes"/>
      <point x="959" y="558" type="line"/>
      <point x="1139" y="558" type="line"/>
      <point x="1139" y="523" type="line" smooth="yes"/>
      <point x="1139.0" y="298.0"/>
      <point x="851" y="-5"/>
      <point x="526" y="-2" type="qcurve" smooth="yes"/>
    </contour>
    <contour>
      <point x="46" y="694" type="line"/>
      <point x="46" y="862" type="line"/>
      <point x="959" y="1262" type="line"/>
      <point x="953" y="1095" type="line"/>
    </contour>
  </outline>
</glyph>
<glyph name="manat" format="2">
  <advance width="1434"/>
  <unicode hex="20BC"/>
  <outline>
    <contour>
      <point x="1418" y="114" type="line"/>
      <point x="1418" y="0" type="line"/>
      <point x="892" y="0" type="line"/>
      <point x="892" y="114" type="line"/>
      <point x="1069" y="148" type="line"/>
      <point x="1074" y="506" type="line"/>
      <point x="1070" y="926" type="line" smooth="yes"/>
      <point x="1068" y="1118"/>
      <point x="873" y="1286"/>
      <point x="694" y="1286" type="qcurve" smooth="yes"/>
      <point x="533" y="1286"/>
      <point x="332" y="1103"/>
      <point x="330" y="906" type="qcurve" smooth="yes"/>
      <point x="328" y="506" type="line"/>
      <point x="330" y="148" type="line"/>
      <point x="518" y="114" type="line"/>
      <point x="518" y="0" type="line"/>
      <point x="12" y="0" type="line"/>
      <point x="12" y="114" type="line"/>
      <point x="190" y="148" type="line"/>
      <point x="192" y="506" type="line"/>
      <point x="189" y="907" type="line" smooth="yes"/>
      <point x="187" y="1167"/>
      <point x="470" y="1431"/>
      <point x="709" y="1431" type="qcurve" smooth="yes"/>
      <point x="966" y="1431"/>
      <point x="1252" y="1158"/>
      <point x="1250" y="919" type="qcurve" smooth="yes"/>
      <point x="1248" y="506" type="line"/>
      <point x="1250" y="148" type="line"/>
    </contour>
    <contour>
      <point x="615" y="260" type="line"/>
      <point x="632" y="662" type="line"/>
      <point x="634" y="1350" type="line"/>
      <point x="605" y="1530" type="line"/>
      <point x="795" y="1600" type="line"/>
      <point x="767" y="1350" type="line"/>
      <point x="771" y="762" type="line"/>
      <point x="795" y="330" type="line"/>
    </contour>
  </outline>
</glyph>
<glyph name="ruble" format="2">
  <advance width="1222"/>
  <unicode hex="20BD"/>
  <outline>
    <contour>
      <point x="666" y="611" type="line" smooth="yes"/>
      <point x="912" y="611"/>
      <point x="1174" y="835"/>
      <point x="1174" y="1035" type="qcurve" smooth="yes"/>
      <point x="1174" y="1217"/>
      <point x="912" y="1456"/>
      <point x="666" y="1456" type="qcurve" smooth="yes"/>
      <point x="238" y="1456" type="line"/>
      <point x="238" y="0" type="line"/>
      <point x="425" y="0" type="line"/>
      <point x="425" y="1298" type="line"/>
      <point x="666" y="1298" type="line" smooth="yes"/>
      <point x="835" y="1298"/>
      <point x="982" y="1138"/>
      <point x="982" y="1033" type="qcurve" smooth="yes"/>
      <point x="982" y="913"/>
      <point x="829" y="771"/>
      <point x="666" y="768" type="qcurve" smooth="yes"/>
      <point x="30" y="768" type="line"/>
      <point x="30" y="611" type="line"/>
    </contour>
    <contour>
      <point x="764" y="424" type="line"/>
      <point x="30" y="424" type="line"/>
      <point x="30" y="266" type="line"/>
      <point x="764" y="266" type="line"/>
    </contour>
  </outline>
</glyph>
<glyph name="numero" format="2">
  <advance width="2331"/>
  <unicode hex="2116"/>
  <outline>
    <contour>
      <point x="170" y="0" type="line"/>
      <point x="353" y="0" type="line"/>
      <point x="353" y="1000" type="line" smooth="yes"/>
      <point x="353" y="1030"/>
      <point x="349" y="1105"/>
      <point x="345" y="1135" type="qcurve"/>
      <point x="355" y="1135" type="line"/>
      <point x="369" y="1110"/>
      <point x="383" y="1050"/>
      <point x="403" y="1020" type="qcurve" smooth="yes"/>
      <point x="1017" y="0" type="line"/>
      <point x="1217" y="0" type="line"/>
      <point x="1217" y="1456" type="line"/>
      <point x="1037" y="1456" type="line"/>
      <point x="1037" y="456" type="line" smooth="yes"/>
      <point x="1037" y="426"/>
      <point x="1041" y="351"/>
      <point x="1045" y="321" type="qcurve"/>
      <point x="1035" y="321" type="line"/>
      <point x="1021" y="346"/>
      <point x="985" y="406"/>
      <point x="967" y="436" type="qcurve" smooth="yes"/>
      <point x="365" y="1456" type="line"/>
      <point x="170" y="1456" type="line"/>
    </contour>
    <contour>
      <point x="1353" y="992" type="line" smooth="yes"/>
      <point x="1353.0" y="792.0"/>
      <point x="1581" y="539"/>
      <point x="1789" y="539" type="qcurve" smooth="yes"/>
      <point x="1997.0" y="539.0"/>
      <point x="2226.0" y="792.0"/>
      <point x="2226" y="992" type="qcurve" smooth="yes"/>
      <point x="2226" y="1019" type="line" smooth="yes"/>
      <point x="2226.0" y="1219.0"/>
      <point x="1985.0" y="1473.0"/>
      <point x="1789" y="1473" type="qcurve" smooth="yes"/>
      <point x="1593" y="1473"/>
      <point x="1353.0" y="1219.0"/>
      <point x="1353" y="1019" type="qcurve" smooth="yes"/>
    </contour>
    <contour>
      <point x="1551" y="1016" type="line" smooth="yes"/>
      <point x="1551.0" y="1143.0"/>
      <point x="1669" y="1308"/>
      <point x="1789" y="1308" type="qcurve" smooth="yes"/>
      <point x="1909.0" y="1308.0"/>
      <point x="2028.0" y="1143.0"/>
      <point x="2028" y="1016" type="qcurve" smooth="yes"/>
      <point x="2028" y="991" type="line" smooth="yes"/>
      <point x="2028" y="864"/>
      <point x="1910" y="699.0"/>
      <point x="1789" y="699" type="qcurve" smooth="yes"/>
      <point x="1668" y="699"/>
      <point x="1551" y="864"/>
      <point x="1551" y="991" type="qcurve" smooth="yes"/>
    </contour>
    <contour>
      <point x="1393" y="232" type="line"/>
      <point x="2186" y="232" type="line"/>
      <point x="2186" y="414" type="line"/>
      <point x="1393" y="414" type="line"/>
    </contour>
  </outline>
</glyph>
<glyph name="trademark" format="2">
  <advance width="2017"/>
  <unicode hex="2122"/>
  <outline>
    <contour>
      <point x="40" y="1195" type="line"/>
      <point x="40" y="1500" type="line"/>
      <point x="848" y="1500" type="line"/>
      <point x="848" y="1195" type="line"/>
      <point x="742" y="1195" type="line"/>
      <point x="707" y="1385" type="line"/>
      <point x="553" y="1385" type="line"/>
      <point x="524" y="1365" type="line"/>
      <point x="522" y="1054" type="line"/>
      <point x="522" y="832" type="line"/>
      <point x="651" y="796" type="line"/>
      <point x="651" y="700" type="line"/>
      <point x="236" y="700" type="line"/>
      <point x="236" y="796" type="line"/>
      <point x="366" y="832" type="line"/>
      <point x="366" y="1054" type="line"/>
      <point x="364" y="1365" type="line"/>
      <point x="345" y="1385" type="line"/>
      <point x="181" y="1385" type="line"/>
      <point x="146" y="1195" type="line"/>
    </contour>
    <contour>
      <point x="882" y="702" type="line"/>
      <point x="882" y="795" type="line"/>
      <point x="1000" y="830" type="line"/>
      <point x="1002" y="1056" type="line"/>
      <point x="1000" y="1358" type="line"/>
      <point x="882" y="1392" type="line"/>
      <point x="882" y="1500" type="line"/>
      <point x="1204" y="1500" type="line"/>
      <point x="1421" y="876" type="line"/>
      <point x="1646" y="1500" type="line"/>
      <point x="1966" y="1500" type="line"/>
      <point x="1966" y="1392" type="line"/>
      <point x="1858" y="1358" type="line"/>
      <point x="1856" y="1054" type="line"/>
      <point x="1858" y="828" type="line"/>
      <point x="1966" y="793" type="line"/>
      <point x="1966" y="700" type="line"/>
      <point x="1604" y="700" type="line"/>
      <point x="1604" y="793" type="line"/>
      <point x="1702" y="828" type="line"/>
      <point x="1704" y="1054" type="line"/>
      <point x="1702" y="1335" type="line"/>
      <point x="1467" y="692" type="line"/>
      <point x="1345" y="692" type="line"/>
      <point x="1103" y="1350" type="line"/>
      <point x="1101" y="1056" type="line"/>
      <point x="1103" y="830" type="line"/>
      <point x="1221" y="795" type="line"/>
      <point x="1221" y="702" type="line"/>
    </contour>
  </outline>
</glyph>
<glyph name="minus" format="2">
  <advance width="1171"/>
  <unicode hex="2212"/>
  <outline>
    <contour>
      <point x="1003" y="803" type="line"/>
      <point x="168" y="803" type="line"/>
      <point x="168" y="651" type="line"/>
      <point x="1003" y="651" type="line"/>
    </contour>
  </outline>
</glyph>
<glyph name="divisionslash" format="2">
  <advance width="656"/>
  <unicode hex="2215"/>
  <outline>
    <contour>
      <point x="-62" y="-118" type="line"/>
      <point x="554" y="1555" type="line"/>
      <point x="695" y="1512" type="line"/>
      <point x="79" y="-161" type="line"/>
    </contour>
  </outline>
</glyph>
<glyph name="bulletoperator" format="2">
  <advance width="1024"/>
  <unicode hex="2219"/>
  <outline>
    <contour>
      <point x="368" y="644" type="qcurve" smooth="yes"/>
      <point x="368" y="702"/>
      <point x="449" y="788"/>
      <point x="512" y="788" type="qcurve" smooth="yes"/>
      <point x="575" y="788"/>
      <point x="656" y="702"/>
      <point x="656" y="644" type="qcurve" smooth="yes"/>
      <point x="656" y="587"/>
      <point x="575" y="501"/>
      <point x="512" y="501" type="qcurve" smooth="yes"/>
      <point x="449" y="501"/>
      <point x="368" y="587"/>
    </contour>
  </outline>
</glyph>
<glyph name="approxequal" format="2">
  <advance width="1154"/>
  <unicode hex="2248"/>
  <outline>
    <contour>
      <point x="103" y="712" type="line"/>
      <point x="150.01492537313433" y="771.7014925373135"/>
      <point x="282.07462686567163" y="840.0"/>
      <point x="347" y="840" type="qcurve"/>
      <point x="426.1044776119403" y="842.2388059701492"/>
      <point x="519.3134328358209" y="798.3432835820895"/>
      <point x="582" y="767" type="qcurve" smooth="yes"/>
      <point x="640.955223880597" y="737.1492537313433"/>
      <point x="726.1194029850747" y="698.0"/>
      <point x="800" y="698" type="qcurve" smooth="yes"/>
      <point x="864.9253731343283" y="698.0"/>
      <point x="988.9850746268656" y="756.2537313432836"/>
      <point x="1036" y="807" type="qcurve"/>
      <point x="1035" y="996" type="line"/>
      <point x="987.9850746268656" y="936.2985074626865"/>
      <point x="863.9253731343283" y="868.0"/>
      <point x="799" y="868" type="qcurve" smooth="yes"/>
      <point x="725.1194029850747" y="868.0"/>
      <point x="639.955223880597" y="908.1492537313433"/>
      <point x="581" y="938" type="qcurve" smooth="yes"/>
      <point x="518.3134328358209" y="969.3432835820895"/>
      <point x="426.1044776119403" y="1013.2388059701492"/>
      <point x="347" y="1011" type="qcurve"/>
      <point x="282.07462686567163" y="1011.0"/>
      <point x="149.01492537313433" y="951.7462686567164"/>
      <point x="102" y="901" type="qcurve"/>
    </contour>
    <contour>
      <point x="102" y="295" type="line"/>
      <point x="149.01492537313433" y="354.7014925373134"/>
      <point x="281.07462686567163" y="423.0"/>
      <point x="346" y="423" type="qcurve"/>
      <point x="425.1044776119403" y="425.23880597014926"/>
      <point x="518.3134328358209" y="380.34328358208955"/>
      <point x="581" y="349" type="qcurve" smooth="yes"/>
      <point x="639.955223880597" y="319.14925373134326"/>
      <point x="725.1194029850747" y="280.0"/>
      <point x="799" y="280" type="qcurve" smooth="yes"/>
      <point x="863.9253731343283" y="280.0"/>
      <point x="987.9850746268656" y="338.25373134328356"/>
      <point x="1035" y="389" type="qcurve"/>
      <point x="1034" y="579" type="line"/>
      <point x="986.9850746268656" y="519.2985074626865"/>
      <point x="862.9253731343283" y="451.0"/>
      <point x="798" y="451" type="qcurve" smooth="yes"/>
      <point x="724.1194029850747" y="451.0"/>
      <point x="638.955223880597" y="490.14925373134326"/>
      <point x="580" y="520" type="qcurve" smooth="yes"/>
      <point x="517.3134328358209" y="551.3432835820895"/>
      <point x="425.1044776119403" y="595.2388059701492"/>
      <point x="346" y="593" type="qcurve"/>
      <point x="281.07462686567163" y="593.0"/>
      <point x="148.01492537313433" y="534.7462686567164"/>
      <point x="101" y="484" type="qcurve"/>
    </contour>
  </outline>
</glyph>
<glyph name="notequal" format="2">
  <advance width="1024"/>
  <unicode hex="2260"/>
  <outline>
    <contour>
      <point x="883" y="1181" type="line"/>
      <point x="745" y="1261" type="line"/>
      <point x="520" y="864" type="line"/>
      <point x="509" y="828" type="line"/>
      <point x="302" y="469" type="line"/>
      <point x="279" y="447" type="line"/>
      <point x="119" y="169" type="line"/>
      <point x="257" y="89" type="line"/>
      <point x="458" y="437" type="line"/>
      <point x="462" y="461" type="line"/>
      <point x="676" y="832" type="line"/>
      <point x="703" y="861" type="line"/>
    </contour>
    <contour>
      <point x="57" y="381" type="line"/>
      <point x="967" y="381" type="line"/>
      <point x="967" y="550" type="line"/>
      <point x="57" y="550" type="line"/>
    </contour>
    <contour>
      <point x="57" y="776" type="line"/>
      <point x="967" y="776" type="line"/>
      <point x="967" y="945" type="line"/>
      <point x="57" y="945" type="line"/>
    </contour>
  </outline>
</glyph>
<glyph name="leftanglebracket" format="2">
  <advance width="983"/>
  <unicode hex="27E8"/>
  <outline>
    <contour>
      <point x="895" y="1518" type="line"/>
      <point x="977" y="1440" type="line"/>
      <point x="195" y="710" type="line"/>
      <point x="983" y="-83" type="line"/>
      <point x="881" y="-177" type="line"/>
      <point x="24" y="622" type="line"/>
      <point x="24" y="801" type="line"/>
    </contour>
  </outline>
</glyph>
<glyph name="rightanglebracket" format="2">
  <advance width="983"/>
  <unicode hex="27E9"/>
  <outline>
    <contour>
      <point x="88" y="-177" type="line"/>
      <point x="6" y="-99" type="line"/>
      <point x="788" y="631" type="line"/>
      <point x="0" y="1424" type="line"/>
      <point x="102" y="1518" type="line"/>
      <point x="959" y="719" type="line"/>
      <point x="959" y="540" type="line"/>
    </contour>
  </outline>
</glyph>
<glyph name="f_f" format="2">
  <advance width="1256"/>
  <unicode hex="FB00"/>
  <outline>
    <contour>
      <point x="54" y="0" type="line"/>
      <point x="54" y="80" type="line"/>
      <point x="222" y="115" type="line"/>
      <point x="224" y="527" type="line"/>
      <point x="221" y="860" type="line"/>
      <point x="68" y="872" type="line"/>
      <point x="58" y="966" type="line"/>
      <point x="223" y="984" type="line"/>
      <point x="227" y="1192" type="line" smooth="yes"/>
      <point x="230" y="1337"/>
      <point x="380" y="1482"/>
      <point x="480" y="1482" type="qcurve" smooth="yes"/>
      <point x="526" y="1482"/>
      <point x="609" y="1470"/>
      <point x="638" y="1463" type="qcurve" smooth="yes"/>
      <point x="666" y="1456" type="line"/>
      <point x="650" y="1349" type="line"/>
      <point x="621" y="1358" type="line" smooth="yes"/>
      <point x="605" y="1363"/>
      <point x="567" y="1370"/>
      <point x="544" y="1370" type="qcurve" smooth="yes"/>
      <point x="470" y="1370"/>
      <point x="382" y="1278"/>
      <point x="383" y="1157" type="qcurve" smooth="yes"/>
      <point x="385" y="985" type="line"/>
      <point x="851" y="985" type="line"/>
      <point x="855" y="1304" type="line" smooth="yes"/>
      <point x="856" y="1403"/>
      <point x="988" y="1518"/>
      <point x="1088" y="1518" type="qcurve" smooth="yes"/>
      <point x="1128" y="1518"/>
      <point x="1189" y="1513"/>
      <point x="1214" y="1507" type="qcurve" smooth="yes"/>
      <point x="1247" y="1499" type="line"/>
      <point x="1231" y="1392" type="line"/>
      <point x="1203" y="1399" type="line" smooth="yes"/>
      <point x="1186" y="1403"/>
      <point x="1160" y="1406"/>
      <point x="1142" y="1406" type="qcurve" smooth="yes"/>
      <point x="1083" y="1406"/>
      <point x="1010" y="1342"/>
      <point x="1011" y="1269" type="qcurve" smooth="yes"/>
      <point x="1013" y="985" type="line"/>
      <point x="1230" y="985" type="line"/>
      <point x="1230" y="883" type="line"/>
      <point x="1013" y="872" type="line"/>
      <point x="1015" y="527" type="line"/>
      <point x="1029" y="115" type="line"/>
      <point x="1212" y="80" type="line"/>
      <point x="1212" y="0" type="line"/>
      <point x="713" y="0" type="line"/>
      <point x="713" y="80" type="line"/>
      <point x="850" y="115" type="line"/>
      <point x="852" y="527" type="line"/>
      <point x="849" y="860" type="line"/>
      <point x="807" y="873" type="line"/>
      <point x="385" y="877" type="line"/>
      <point x="387" y="527" type="line"/>
      <point x="401" y="115" type="line"/>
      <point x="562" y="80" type="line"/>
      <point x="562" y="0" type="line"/>
    </contour>
  </outline>
</glyph>
<glyph name="fi" format="2">
  <advance width="1267"/>
  <unicode hex="FB01"/>
  <outline>
    <contour>
      <point x="54" y="0" type="line"/>
      <point x="54" y="80" type="line"/>
      <point x="222" y="115" type="line"/>
      <point x="224" y="527" type="line"/>
      <point x="221" y="860" type="line"/>
      <point x="68" y="872" type="line"/>
      <point x="58" y="966" type="line"/>
      <point x="223" y="984" type="line"/>
      <point x="226" y="1240" type="line" smooth="yes"/>
      <point x="228" y="1393"/>
      <point x="404" y="1518"/>
      <point x="504" y="1517" type="qcurve" smooth="yes"/>
      <point x="580" y="1516"/>
      <point x="675" y="1489"/>
      <point x="708" y="1474" type="qcurve" smooth="yes"/>
      <point x="728" y="1465" type="line"/>
      <point x="712" y="1358" type="line"/>
      <point x="690" y="1367" type="line" smooth="yes"/>
      <point x="661" y="1379"/>
      <point x="573" y="1406"/>
      <point x="530" y="1406" type="qcurve" smooth="yes"/>
      <point x="475" y="1406"/>
      <point x="382" y="1332"/>
      <point x="383" y="1205" type="qcurve" smooth="yes"/>
      <point x="385" y="985" type="line"/>
      <point x="978" y="1000" type="line"/>
      <point x="1025" y="1000" type="line"/>
      <point x="1048" y="961" type="line"/>
      <point x="1041" y="527" type="line"/>
      <point x="1043" y="115" type="line"/>
      <point x="1211" y="80" type="line"/>
      <point x="1211" y="0" type="line"/>
      <point x="715" y="0" type="line"/>
      <point x="715" y="80" type="line"/>
      <point x="873" y="115" type="line"/>
      <point x="875" y="527" type="line"/>
      <point x="868" y="862" type="line"/>
      <point x="841" y="883" type="line"/>
      <point x="385" y="872" type="line"/>
      <point x="387" y="527" type="line"/>
      <point x="401" y="115" type="line"/>
      <point x="564" y="80" type="line"/>
      <point x="564" y="0" type="line"/>
    </contour>
    <contour>
      <point x="827" y="1337" type="qcurve" smooth="yes"/>
      <point x="827" y="1396"/>
      <point x="892" y="1460"/>
      <point x="953" y="1460" type="qcurve" smooth="yes"/>
      <point x="1010" y="1460"/>
      <point x="1079" y="1392"/>
      <point x="1079" y="1337" type="qcurve" smooth="yes"/>
      <point x="1079" y="1278"/>
      <point x="1014" y="1214"/>
      <point x="953" y="1214" type="qcurve" smooth="yes"/>
      <point x="896" y="1214"/>
      <point x="827" y="1282"/>
    </contour>
  </outline>
</glyph>
<glyph name="fl" format="2">
  <advance width="1260"/>
  <unicode hex="FB02"/>
  <outline>
    <contour>
      <point x="54" y="0" type="line"/>
      <point x="54" y="80" type="line"/>
      <point x="222" y="115" type="line"/>
      <point x="224" y="527" type="line"/>
      <point x="221" y="860" type="line"/>
      <point x="68" y="872" type="line"/>
      <point x="58" y="966" type="line"/>
      <point x="223" y="984" type="line"/>
      <point x="227" y="1304" type="line" smooth="yes"/>
      <point x="228" y="1403"/>
      <point x="360" y="1518"/>
      <point x="460" y="1518" type="qcurve" smooth="yes"/>
      <point x="493" y="1518"/>
      <point x="569" y="1511"/>
      <point x="598" y="1504" type="qcurve" smooth="yes"/>
      <point x="670" y="1488" type="line"/>
      <point x="976" y="1534" type="line"/>
      <point x="1013" y="1532" type="line"/>
      <point x="1036" y="1501" type="line"/>
      <point x="1034" y="527" type="line"/>
      <point x="1036" y="115" type="line"/>
      <point x="1194" y="80" type="line"/>
      <point x="1194" y="0" type="line"/>
      <point x="721" y="0" type="line"/>
      <point x="721" y="80" type="line"/>
      <point x="866" y="115" type="line"/>
      <point x="868" y="527" type="line"/>
      <point x="866" y="1376" type="line"/>
      <point x="579" y="1403" type="line" smooth="yes"/>
      <point x="563" y="1405"/>
      <point x="540" y="1406"/>
      <point x="524" y="1406" type="qcurve" smooth="yes"/>
      <point x="455" y="1406"/>
      <point x="382" y="1342"/>
      <point x="383" y="1269" type="qcurve" smooth="yes"/>
      <point x="385" y="985" type="line"/>
      <point x="661" y="985" type="line"/>
      <point x="661" y="883" type="line"/>
      <point x="385" y="872" type="line"/>
      <point x="387" y="527" type="line"/>
      <point x="401" y="115" type="line"/>
      <point x="570" y="80" type="line"/>
      <point x="570" y="0" type="line"/>
    </contour>
  </outline>
</glyph>
<glyph name="f_f_i" format="2">
  <advance width="1898"/>
  <unicode hex="FB03"/>
  <outline>
    <contour>
      <point x="54" y="0" type="line"/>
      <point x="54" y="80" type="line"/>
      <point x="222" y="115" type="line"/>
      <point x="224" y="527" type="line"/>
      <point x="221" y="860" type="line"/>
      <point x="68" y="872" type="line"/>
      <point x="58" y="966" type="line"/>
      <point x="223" y="984" type="line"/>
      <point x="227" y="1192" type="line" smooth="yes"/>
      <point x="230" y="1337"/>
      <point x="380" y="1482"/>
      <point x="480" y="1482" type="qcurve" smooth="yes"/>
      <point x="524" y="1482"/>
      <point x="611" y="1470"/>
      <point x="642" y="1462" type="qcurve" smooth="yes"/>
      <point x="666" y="1456" type="line"/>
      <point x="650" y="1349" type="line"/>
      <point x="625" y="1357" type="line" smooth="yes"/>
      <point x="609" y="1362"/>
      <point x="569" y="1370"/>
      <point x="544" y="1370" type="qcurve" smooth="yes"/>
      <point x="470" y="1370"/>
      <point x="382" y="1278"/>
      <point x="383" y="1157" type="qcurve" smooth="yes"/>
      <point x="385" y="984" type="line"/>
      <point x="854" y="984" type="line"/>
      <point x="857" y="1240" type="line" smooth="yes"/>
      <point x="859" y="1393"/>
      <point x="1035" y="1518"/>
      <point x="1135" y="1517" type="qcurve" smooth="yes"/>
      <point x="1211" y="1516"/>
      <point x="1307" y="1490"/>
      <point x="1338" y="1475" type="qcurve" smooth="yes"/>
      <point x="1359" y="1465" type="line"/>
      <point x="1343" y="1358" type="line"/>
      <point x="1315" y="1370" type="line" smooth="yes"/>
      <point x="1286" y="1382"/>
      <point x="1203" y="1406"/>
      <point x="1161" y="1406" type="qcurve" smooth="yes"/>
      <point x="1106" y="1406"/>
      <point x="1013" y="1332"/>
      <point x="1014" y="1205" type="qcurve" smooth="yes"/>
      <point x="1016" y="985" type="line"/>
      <point x="1609" y="1000" type="line"/>
      <point x="1656" y="1000" type="line"/>
      <point x="1679" y="961" type="line"/>
      <point x="1672" y="527" type="line"/>
      <point x="1674" y="115" type="line"/>
      <point x="1842" y="80" type="line"/>
      <point x="1842" y="0" type="line"/>
      <point x="1346" y="0" type="line"/>
      <point x="1346" y="80" type="line"/>
      <point x="1504" y="115" type="line"/>
      <point x="1506" y="527" type="line"/>
      <point x="1499" y="862" type="line"/>
      <point x="1472" y="883" type="line"/>
      <point x="1016" y="872" type="line"/>
      <point x="1018" y="527" type="line"/>
      <point x="1032" y="115" type="line"/>
      <point x="1195" y="80" type="line"/>
      <point x="1195" y="0" type="line"/>
      <point x="705" y="0" type="line"/>
      <point x="705" y="80" type="line"/>
      <point x="853" y="115" type="line"/>
      <point x="855" y="527" type="line"/>
      <point x="852" y="860" type="line"/>
      <point x="385" y="877" type="line"/>
      <point x="387" y="527" type="line"/>
      <point x="401" y="115" type="line"/>
      <point x="554" y="80" type="line"/>
      <point x="554" y="0" type="line"/>
    </contour>
    <contour>
      <point x="1458" y="1337" type="qcurve" smooth="yes"/>
      <point x="1458" y="1396"/>
      <point x="1523" y="1460"/>
      <point x="1584" y="1460" type="qcurve" smooth="yes"/>
      <point x="1641" y="1460"/>
      <point x="1710" y="1392"/>
      <point x="1710" y="1337" type="qcurve" smooth="yes"/>
      <point x="1710" y="1278"/>
      <point x="1645" y="1214"/>
      <point x="1584" y="1214" type="qcurve" smooth="yes"/>
      <point x="1527" y="1214"/>
      <point x="1458" y="1282"/>
    </contour>
  </outline>
</glyph>
<glyph name="f_f_l" format="2">
  <advance width="1891"/>
  <unicode hex="FB04"/>
  <outline>
    <contour>
      <point x="54" y="0" type="line"/>
      <point x="54" y="80" type="line"/>
      <point x="222" y="115" type="line"/>
      <point x="224" y="527" type="line"/>
      <point x="221" y="860" type="line"/>
      <point x="68" y="872" type="line"/>
      <point x="58" y="966" type="line"/>
      <point x="223" y="984" type="line"/>
      <point x="227" y="1192" type="line" smooth="yes"/>
      <point x="230" y="1337"/>
      <point x="380" y="1482"/>
      <point x="480" y="1482" type="qcurve" smooth="yes"/>
      <point x="522" y="1482"/>
      <point x="608" y="1469"/>
      <point x="640" y="1462" type="qcurve" smooth="yes"/>
      <point x="666" y="1456" type="line"/>
      <point x="650" y="1349" type="line"/>
      <point x="627" y="1356" type="line" smooth="yes"/>
      <point x="605" y="1363"/>
      <point x="564" y="1370"/>
      <point x="544" y="1370" type="qcurve" smooth="yes"/>
      <point x="470" y="1370"/>
      <point x="382" y="1278"/>
      <point x="383" y="1157" type="qcurve" smooth="yes"/>
      <point x="385" y="985" type="line"/>
      <point x="854" y="985" type="line"/>
      <point x="858" y="1304" type="line" smooth="yes"/>
      <point x="859" y="1403"/>
      <point x="991" y="1518"/>
      <point x="1091" y="1518" type="qcurve" smooth="yes"/>
      <point x="1124" y="1518"/>
      <point x="1200" y="1511"/>
      <point x="1229" y="1504" type="qcurve" smooth="yes"/>
      <point x="1301" y="1488" type="line"/>
      <point x="1607" y="1534" type="line"/>
      <point x="1644" y="1532" type="line"/>
      <point x="1667" y="1501" type="line"/>
      <point x="1665" y="527" type="line"/>
      <point x="1667" y="115" type="line"/>
      <point x="1825" y="80" type="line"/>
      <point x="1825" y="0" type="line"/>
      <point x="1355" y="0" type="line"/>
      <point x="1355" y="80" type="line"/>
      <point x="1497" y="115" type="line"/>
      <point x="1499" y="527" type="line"/>
      <point x="1497" y="1376" type="line"/>
      <point x="1210" y="1403" type="line" smooth="yes"/>
      <point x="1194" y="1405"/>
      <point x="1171" y="1406"/>
      <point x="1155" y="1406" type="qcurve" smooth="yes"/>
      <point x="1086" y="1406"/>
      <point x="1013" y="1342"/>
      <point x="1014" y="1269" type="qcurve" smooth="yes"/>
      <point x="1016" y="985" type="line"/>
      <point x="1302" y="985" type="line"/>
      <point x="1302" y="883" type="line"/>
      <point x="1016" y="872" type="line"/>
      <point x="1018" y="527" type="line"/>
      <point x="1032" y="115" type="line"/>
      <point x="1204" y="80" type="line"/>
      <point x="1204" y="0" type="line"/>
      <point x="715" y="0" type="line"/>
      <point x="715" y="80" type="line"/>
      <point x="853" y="115" type="line"/>
      <point x="855" y="527" type="line"/>
      <point x="852" y="849" type="line"/>
      <point x="842" y="870" type="line"/>
      <point x="385" y="877" type="line"/>
      <point x="387" y="527" type="line"/>
      <point x="401" y="115" type="line"/>
      <point x="564" y="80" type="line"/>
      <point x="564" y="0" type="line"/>
    </contour>
  </outline>
</glyph>
<glyph name="acutecomb.case" format="2">
  <advance width="1024"/>
  <outline>
    <contour>
      <point x="741" y="1916" type="qcurve" smooth="yes"/>
      <point x="741" y="1869"/>
      <point x="701" y="1827"/>
      <point x="660" y="1799" type="qcurve" smooth="yes"/>
      <point x="357" y="1592" type="line"/>
      <point x="283" y="1668" type="line"/>
      <point x="494" y="1895" type="line" smooth="yes"/>
      <point x="529" y="1932"/>
      <point x="609" y="1994"/>
      <point x="646" y="1994" type="qcurve" smooth="yes"/>
      <point x="680" y="1994"/>
      <point x="741" y="1951"/>
    </contour>
  </outline>
</glyph>
<glyph name="acutecombstack.case" format="2">
  <advance width="1024"/>
  <outline>
    <contour>
      <point x="809" y="1763" type="qcurve" smooth="yes"/>
      <point x="793" y="1719"/>
      <point x="741" y="1693"/>
      <point x="693" y="1681" type="qcurve" smooth="yes"/>
      <point x="337" y="1592" type="line"/>
      <point x="294" y="1689" type="line"/>
      <point x="570" y="1829" type="line" smooth="yes"/>
      <point x="616" y="1851"/>
      <point x="713" y="1882"/>
      <point x="747" y="1869" type="qcurve" smooth="yes"/>
      <point x="779" y="1857"/>
      <point x="821" y="1796"/>
    </contour>
  </outline>
</glyph>
<glyph name="brevebelowcomb.case" format="2">
  <advance width="1024"/>
  <outline>
    <contour>
      <point x="802" y="-90" type="qcurve"/>
      <point x="895" y="-160" type="line"/>
      <point x="856" y="-259"/>
      <point x="655" y="-426"/>
      <point x="511" y="-426" type="qcurve" smooth="yes"/>
      <point x="383" y="-426"/>
      <point x="176" y="-273"/>
      <point x="128" y="-159" type="qcurve"/>
      <point x="228" y="-90" type="line"/>
      <point x="271" y="-153"/>
      <point x="416" y="-257"/>
      <point x="511" y="-257" type="qcurve" smooth="yes"/>
      <point x="613" y="-257"/>
      <point x="759" y="-158"/>
    </contour>
  </outline>
</glyph>
<glyph name="caroncomb.alt" format="2">
  <advance width="1024"/>
  <outline>
    <contour>
      <point x="382" y="1028" type="line"/>
      <point x="520" y="993" type="line"/>
      <point x="686" y="1487" type="line"/>
      <point x="496" y="1541" type="line" smooth="yes"/>
    </contour>
  </outline>
</glyph>
<glyph name="caroncomb.case" format="2">
  <advance width="1024"/>
  <outline>
    <contour>
      <point x="512" y="1615" type="qcurve" smooth="yes"/>
      <point x="478" y="1615"/>
      <point x="433" y="1646"/>
      <point x="402" y="1688" type="qcurve" smooth="yes"/>
      <point x="179" y="1931" type="line"/>
      <point x="251" y="2011" type="line"/>
      <point x="512" y="1809" type="line"/>
      <point x="767" y="2004" type="line"/>
      <point x="845" y="1931" type="line"/>
      <point x="622" y="1688" type="line" smooth="yes"/>
      <point x="579" y="1641"/>
      <point x="546" y="1615"/>
    </contour>
  </outline>
</glyph>
<glyph name="cedilla.copy_1" format="2">
  <advance width="508"/>
  <outline>
    <contour>
      <point x="152" y="0" type="line"/>
      <point x="121" y="-135" type="line"/>
      <point x="204.5820895522388" y="-141.71641791044777"/>
      <point x="282.0" y="-179.74626865671644"/>
      <point x="282" y="-229" type="qcurve" smooth="yes"/>
      <point x="282.0" y="-281.98507462686564"/>
      <point x="184.65671641791045" y="-328.0"/>
      <point x="116" y="-328" type="qcurve"/>
      <point x="123" y="-435" type="line"/>
      <point x="271.5074626865671" y="-435.0"/>
      <point x="426.0" y="-319.2835820895522"/>
      <point x="426" y="-226" type="qcurve" smooth="yes"/>
      <point x="426.0" y="-139.43283582089555"/>
      <point x="330.46268656716416" y="-62.70149253731343"/>
      <point x="273" y="-53" type="qcurve"/>
      <point x="285" y="0" type="line"/>
    </contour>
  </outline>
</glyph>
<glyph name="cedillacomb.case" format="2">
  <advance width="1024"/>
  <outline>
    <contour>
      <point x="563" y="-4" type="line"/>
      <point x="467" y="51" type="line"/>
      <point x="358" y="-160" type="line"/>
      <point x="417" y="-240" type="line"/>
      <point x="434" y="-234"/>
      <point x="483" y="-226"/>
      <point x="514" y="-226" type="qcurve" smooth="yes"/>
      <point x="566" y="-226"/>
      <point x="625" y="-271"/>
      <point x="625" y="-316" type="qcurve" smooth="yes"/>
      <point x="625" y="-360"/>
      <point x="554" y="-412"/>
      <point x="510" y="-412" type="qcurve" smooth="yes"/>
      <point x="446" y="-412"/>
      <point x="321" y="-364"/>
      <point x="289" y="-341" type="qcurve"/>
      <point x="237" y="-450" type="line"/>
      <point x="296" y="-498"/>
      <point x="456" y="-536"/>
      <point x="545" y="-536" type="qcurve" smooth="yes"/>
      <point x="643" y="-536"/>
      <point x="788" y="-422"/>
      <point x="788" y="-317" type="qcurve" smooth="yes"/>
      <point x="788" y="-225"/>
      <point x="677" y="-126"/>
      <point x="601" y="-126" type="qcurve" smooth="yes"/>
      <point x="571" y="-126"/>
      <point x="513" y="-135"/>
      <point x="497" y="-139" type="qcurve"/>
    </contour>
  </outline>
</glyph>
<glyph name="circumflexcomb.case" format="2">
  <advance width="1024"/>
  <outline>
    <contour>
      <point x="512" y="2011" type="qcurve" smooth="yes"/>
      <point x="546" y="2011"/>
      <point x="591" y="1980"/>
      <point x="622" y="1938" type="qcurve" smooth="yes"/>
      <point x="845" y="1695" type="line"/>
      <point x="773" y="1615" type="line"/>
      <point x="512" y="1817" type="line"/>
      <point x="257" y="1622" type="line"/>
      <point x="179" y="1695" type="line"/>
      <point x="402" y="1938" type="line" smooth="yes"/>
      <point x="445" y="1985"/>
      <point x="478" y="2011"/>
    </contour>
  </outline>
</glyph>
<glyph name="circumflexcombstack.case" format="2">
  <advance width="1024"/>
  <outline>
    <contour>
      <point x="512" y="1933" type="qcurve" smooth="yes"/>
      <point x="546" y="1933"/>
      <point x="582" y="1911"/>
      <point x="622" y="1878" type="qcurve" smooth="yes"/>
      <point x="845" y="1695" type="line"/>
      <point x="773" y="1615" type="line"/>
      <point x="512" y="1757" type="line"/>
      <point x="257" y="1622" type="line"/>
      <point x="179" y="1695" type="line"/>
      <point x="402" y="1878" type="line" smooth="yes"/>
      <point x="452" y="1919"/>
      <point x="478" y="1933"/>
    </contour>
  </outline>
</glyph>
<glyph name="commaaccentcomb.case" format="2">
  <advance width="1024"/>
  <outline>
    <contour>
      <point x="345" y="-609" type="line"/>
      <point x="385" y="-579"/>
      <point x="490" y="-464"/>
      <point x="504" y="-404" type="qcurve"/>
      <point x="445" y="-403"/>
      <point x="368" y="-331"/>
      <point x="368" y="-274" type="qcurve" smooth="yes"/>
      <point x="368" y="-218"/>
      <point x="446" y="-136"/>
      <point x="507" y="-136" type="qcurve" smooth="yes"/>
      <point x="564" y="-136"/>
      <point x="646" y="-209"/>
      <point x="646" y="-283" type="qcurve" smooth="yes"/>
      <point x="646" y="-400"/>
      <point x="493" y="-612"/>
      <point x="398" y="-671" type="qcurve"/>
    </contour>
  </outline>
</glyph>
<glyph name="currency.copy_1" format="2">
  <advance width="1461"/>
  <guideline x="0.0" y="901.0" angle="0.0" identifier="bRYxxRaQQf"/>
  <guideline x="0.0" y="555.0" angle="0.0" identifier="917FhrihjR"/>
  <outline>
    <contour>
      <point x="312" y="608" type="qcurve"/>
      <point x="312.0" y="796.0597014925373"/>
      <point x="560.3731343283582" y="1062.0"/>
      <point x="735" y="1062" type="qcurve" smooth="yes"/>
      <point x="909.6268656716418" y="1062.0"/>
      <point x="1157.0" y="796.0597014925373"/>
      <point x="1157" y="608" type="qcurve" smooth="yes"/>
      <point x="1157.0" y="419.94029850746267"/>
      <point x="909.6268656716418" y="152.0"/>
      <point x="735" y="152" type="qcurve" smooth="yes"/>
      <point x="560.3731343283582" y="152.0"/>
      <point x="312.0" y="419.94029850746267"/>
    </contour>
    <contour>
      <point x="140" y="608" type="qcurve"/>
      <point x="140.0" y="343.82089552238807"/>
      <point x="490.22388059701495" y="-20.0"/>
      <point x="735" y="-20" type="qcurve" smooth="yes"/>
      <point x="980.5223880597015" y="-20.0"/>
      <point x="1330.0" y="343.82089552238807"/>
      <point x="1330" y="608" type="qcurve" smooth="yes"/>
      <point x="1330.0" y="872.9253731343283"/>
      <point x="980.5223880597015" y="1234.0"/>
      <point x="735" y="1234" type="qcurve" smooth="yes"/>
      <point x="490.22388059701495" y="1234.0"/>
      <point x="140.0" y="872.9253731343283"/>
    </contour>
    <contour>
      <point x="1371" y="1128" type="line"/>
      <point x="1239" y="1265" type="line"/>
      <point x="1037" y="1059" type="line"/>
      <point x="1169" y="922" type="line"/>
    </contour>
    <contour>
      <point x="438" y="180" type="line"/>
      <point x="307" y="315" type="line"/>
      <point x="105" y="110" type="line"/>
      <point x="236" y="-26" type="line"/>
    </contour>
    <contour>
      <point x="1239" y="-27" type="line"/>
      <point x="1371" y="110" type="line"/>
      <point x="1169" y="315" type="line"/>
      <point x="1037" y="179" type="line"/>
    </contour>
    <contour>
      <point x="307" y="922" type="line"/>
      <point x="438" y="1058" type="line"/>
      <point x="236" y="1264" type="line"/>
      <point x="105" y="1128" type="line"/>
    </contour>
  </outline>
</glyph>
<glyph name="dblgravecomb.case" format="2">
  <advance width="1024"/>
  <outline>
    <contour>
      <point x="118" y="1916" type="qcurve" smooth="yes"/>
      <point x="118" y="1951"/>
      <point x="179" y="1994"/>
      <point x="213" y="1994" type="qcurve" smooth="yes"/>
      <point x="250" y="1994"/>
      <point x="304" y="1935"/>
      <point x="336" y="1895" type="qcurve" smooth="yes"/>
      <point x="516" y="1668" type="line"/>
      <point x="442" y="1592" type="line"/>
      <point x="199" y="1799" type="line" smooth="yes"/>
      <point x="161" y="1832"/>
      <point x="118" y="1869"/>
    </contour>
    <contour>
      <point x="508" y="1916" type="qcurve" smooth="yes"/>
      <point x="508" y="1951"/>
      <point x="569" y="1994"/>
      <point x="603" y="1994" type="qcurve" smooth="yes"/>
      <point x="640" y="1994"/>
      <point x="695" y="1935"/>
      <point x="727" y="1895" type="qcurve" smooth="yes"/>
      <point x="906" y="1668" type="line"/>
      <point x="832" y="1592" type="line"/>
      <point x="589" y="1799" type="line" smooth="yes"/>
      <point x="551" y="1832"/>
      <point x="508" y="1869"/>
    </contour>
  </outline>
</glyph>
<glyph name="dieresiscombstack.case" format="2">
  <advance width="1024"/>
  <outline>
    <contour>
      <point x="166" y="1727" type="qcurve" smooth="yes"/>
      <point x="166" y="1782"/>
      <point x="226" y="1841"/>
      <point x="282" y="1841" type="qcurve" smooth="yes"/>
      <point x="335" y="1841"/>
      <point x="398" y="1778"/>
      <point x="398" y="1727" type="qcurve" smooth="yes"/>
      <point x="398" y="1673"/>
      <point x="339" y="1614"/>
      <point x="282" y="1614" type="qcurve" smooth="yes"/>
      <point x="229" y="1614"/>
      <point x="166" y="1676"/>
    </contour>
    <contour>
      <point x="626" y="1727" type="qcurve" smooth="yes"/>
      <point x="626" y="1782"/>
      <point x="686" y="1841"/>
      <point x="742" y="1841" type="qcurve" smooth="yes"/>
      <point x="795" y="1841"/>
      <point x="858" y="1778"/>
      <point x="858" y="1727" type="qcurve" smooth="yes"/>
      <point x="858" y="1673"/>
      <point x="799" y="1614"/>
      <point x="742" y="1614" type="qcurve" smooth="yes"/>
      <point x="689" y="1614"/>
      <point x="626" y="1676"/>
    </contour>
  </outline>
</glyph>
<glyph name="dotbelowcomb.case" format="2">
  <advance width="1024"/>
  <outline>
    <contour>
      <point x="389" y="-286" type="qcurve" smooth="yes"/>
      <point x="389" y="-228"/>
      <point x="452" y="-166"/>
      <point x="512" y="-166" type="qcurve" smooth="yes"/>
      <point x="568" y="-166"/>
      <point x="635" y="-232"/>
      <point x="635" y="-286" type="qcurve" smooth="yes"/>
      <point x="635" y="-343"/>
      <point x="572" y="-405"/>
      <point x="512" y="-405" type="qcurve" smooth="yes"/>
      <point x="456" y="-405"/>
      <point x="389" y="-339"/>
    </contour>
  </outline>
</glyph>
<glyph name="foursuperior" format="2">
  <advance width="751"/>
  <outline>
    <contour>
      <point x="700" y="300" type="line"/>
      <point x="212" y="300" type="line"/>
      <point x="419" y="560" type="line"/>
      <point x="556" y="789" type="line"/>
      <point x="432" y="789" type="line"/>
      <point x="54" y="272" type="line"/>
      <point x="61" y="170" type="line"/>
      <point x="700" y="170" type="line"/>
    </contour>
    <contour>
      <point x="592" y="789" type="line"/>
      <point x="435" y="789" type="line"/>
      <point x="435" y="0" type="line"/>
      <point x="592" y="0" type="line"/>
    </contour>
  </outline>
</glyph>
<glyph name="gravecomb.case" format="2">
  <advance width="1024"/>
  <outline>
    <contour>
      <point x="283" y="1916" type="qcurve" smooth="yes"/>
      <point x="283" y="1951"/>
      <point x="344" y="1994"/>
      <point x="378" y="1994" type="qcurve" smooth="yes"/>
      <point x="415" y="1994"/>
      <point x="495" y="1932"/>
      <point x="530" y="1895" type="qcurve" smooth="yes"/>
      <point x="741" y="1668" type="line"/>
      <point x="667" y="1592" type="line"/>
      <point x="364" y="1799" type="line" smooth="yes"/>
      <point x="323" y="1827"/>
      <point x="283" y="1869"/>
    </contour>
  </outline>
</glyph>
<glyph name="gravecombstack.case" format="2">
  <advance width="1024"/>
  <outline>
    <contour>
      <point x="226" y="1766" type="qcurve" smooth="yes"/>
      <point x="214" y="1799"/>
      <point x="257" y="1860"/>
      <point x="289" y="1872" type="qcurve" smooth="yes"/>
      <point x="323" y="1885"/>
      <point x="420" y="1853"/>
      <point x="465" y="1830" type="qcurve" smooth="yes"/>
      <point x="741" y="1689" type="line"/>
      <point x="697" y="1592" type="line"/>
      <point x="342" y="1684" type="line" smooth="yes"/>
      <point x="294" y="1696"/>
      <point x="242" y="1722"/>
    </contour>
  </outline>
</glyph>
<glyph name="hookabovecombstack.case" format="2">
  <advance width="1024"/>
  <outline>
    <contour>
      <point x="374" y="1557" type="line"/>
      <point x="374" y="1698" type="line"/>
      <point x="442" y="1793" type="line"/>
      <point x="458" y="1786"/>
      <point x="508" y="1779"/>
      <point x="529" y="1779" type="qcurve" smooth="yes"/>
      <point x="581" y="1779"/>
      <point x="625" y="1824"/>
      <point x="625" y="1869" type="qcurve" smooth="yes"/>
      <point x="625" y="1913"/>
      <point x="554" y="1965"/>
      <point x="510" y="1965" type="qcurve" smooth="yes"/>
      <point x="446" y="1965"/>
      <point x="327" y="1942"/>
      <point x="289" y="1924" type="qcurve"/>
      <point x="237" y="2033" type="line"/>
      <point x="297" y="2068"/>
      <point x="456" y="2089"/>
      <point x="523" y="2089" type="qcurve" smooth="yes"/>
      <point x="643" y="2089"/>
      <point x="788" y="1975"/>
      <point x="788" y="1870" type="qcurve" smooth="yes"/>
      <point x="788" y="1778"/>
      <point x="677" y="1662"/>
      <point x="601" y="1662" type="qcurve" smooth="yes"/>
      <point x="571" y="1662"/>
      <point x="513" y="1671"/>
      <point x="497" y="1675" type="qcurve"/>
      <point x="497" y="1557" type="line"/>
    </contour>
  </outline>
</glyph>
<glyph name="horizontalbarH" format="2">
  <advance width="1366"/>
  <outline>
    <contour>
      <point x="1356" y="997" type="line"/>
      <point x="1174" y="995" type="line"/>
      <point x="1174" y="1132" type="line"/>
      <point x="1366" y="1134" type="line"/>
    </contour>
    <contour>
      <point x="9" y="995" type="line"/>
      <point x="0" y="1132" type="line"/>
      <point x="199" y="1132" type="line"/>
      <point x="199" y="995" type="line"/>
    </contour>
    <contour>
      <point x="199" y="995" type="line"/>
      <point x="199" y="1132" type="line"/>
      <point x="1174" y="1132" type="line"/>
      <point x="1174" y="995" type="line"/>
    </contour>
  </outline>
</glyph>
<glyph name="horizontalbarlc" format="2">
  <advance width="636"/>
  <outline>
    <contour>
      <point x="311" y="656" type="line"/>
      <point x="49" y="656" type="line"/>
      <point x="60" y="782" type="line"/>
      <point x="351" y="782" type="line"/>
      <point x="626" y="782" type="line"/>
      <point x="626" y="656" type="line"/>
    </contour>
  </outline>
</glyph>
<glyph name="horncomb.case" format="2">
  <advance width="1024"/>
  <outline>
    <contour>
      <point x="290" y="1460" type="qcurve"/>
      <point x="290" y="1342" type="line"/>
      <point x="344" y="1322"/>
      <point x="450" y="1304"/>
      <point x="490" y="1304" type="qcurve" smooth="yes"/>
      <point x="591" y="1304"/>
      <point x="734" y="1399"/>
      <point x="734" y="1494" type="qcurve" smooth="yes"/>
      <point x="734" y="1571"/>
      <point x="702" y="1671"/>
      <point x="676" y="1730" type="qcurve"/>
      <point x="536" y="1730" type="line"/>
      <point x="546" y="1661"/>
      <point x="553" y="1585"/>
      <point x="553" y="1530" type="qcurve" smooth="yes"/>
      <point x="553" y="1487"/>
      <point x="496" y="1439"/>
      <point x="448" y="1439" type="qcurve" smooth="yes"/>
      <point x="408" y="1439"/>
      <point x="330" y="1450"/>
    </contour>
  </outline>
</glyph>
<glyph name="hungarumlautcomb.case" format="2">
  <advance width="1024"/>
  <outline>
    <contour>
      <point x="516" y="1916" type="qcurve" smooth="yes"/>
      <point x="516" y="1869"/>
      <point x="473" y="1832"/>
      <point x="435" y="1799" type="qcurve" smooth="yes"/>
      <point x="192" y="1592" type="line"/>
      <point x="118" y="1668" type="line"/>
      <point x="297" y="1895" type="line" smooth="yes"/>
      <point x="329" y="1935"/>
      <point x="384" y="1994"/>
      <point x="421" y="1994" type="qcurve" smooth="yes"/>
      <point x="455" y="1994"/>
      <point x="516" y="1951"/>
    </contour>
    <contour>
      <point x="906" y="1916" type="qcurve" smooth="yes"/>
      <point x="906" y="1869"/>
      <point x="863" y="1832"/>
      <point x="825" y="1799" type="qcurve" smooth="yes"/>
      <point x="582" y="1592" type="line"/>
      <point x="508" y="1668" type="line"/>
      <point x="688" y="1895" type="line" smooth="yes"/>
      <point x="720" y="1935"/>
      <point x="774" y="1994"/>
      <point x="811" y="1994" type="qcurve" smooth="yes"/>
      <point x="845" y="1994"/>
      <point x="906" y="1951"/>
    </contour>
  </outline>
</glyph>
<glyph name="macronbelowcomb.case" format="2">
  <advance width="1024"/>
  <outline>
    <contour>
      <point x="216" y="-343" type="line"/>
      <point x="216" y="-206" type="line"/>
      <point x="808" y="-206" type="line"/>
      <point x="808" y="-343" type="line"/>
    </contour>
  </outline>
</glyph>
<glyph name="mu.copy_1" format="2">
  <advance width="1161"/>
  <guideline x="0.0" y="202.0" angle="0.0" identifier="MGijCt1Nql"/>
  <guideline x="0.0" y="547.0" angle="0.0" identifier="aRRB0oSma8"/>
  <outline>
    <contour>
      <point x="821" y="1082" type="line"/>
      <point x="821" y="250" type="line"/>
      <point x="839" y="0" type="line"/>
      <point x="1006" y="0" type="line"/>
      <point x="1006" y="1082" type="line"/>
    </contour>
    <contour>
      <point x="854" y="503" type="line"/>
      <point x="854.0" y="341.05970149253733"/>
      <point x="736.8656716417911" y="131.0"/>
      <point x="560" y="131" type="qcurve" smooth="yes"/>
      <point x="468.95522388059703" y="131.0"/>
      <point x="339.0" y="254.7761194029851"/>
      <point x="339" y="460" type="qcurve"/>
      <point x="223" y="460" type="line"/>
      <point x="260" y="171" type="line"/>
      <point x="301.04477611940297" y="69.50746268656718"/>
      <point x="453.82089552238807" y="-21.0"/>
      <point x="568" y="-21" type="qcurve" smooth="yes"/>
      <point x="754.5671641791045" y="-21.0"/>
      <point x="923.0" y="278.8805970149254"/>
      <point x="923" y="505" type="qcurve"/>
    </contour>
    <contour>
      <point x="155" y="1082" type="line"/>
      <point x="155" y="-416" type="line"/>
      <point x="339" y="-416" type="line"/>
      <point x="339" y="1082" type="line"/>
    </contour>
  </outline>
</glyph>
<glyph name="ogonekcomb.case" format="2">
  <advance width="1024"/>
  <outline>
    <contour>
      <point x="221" y="-306" type="qcurve" smooth="yes"/>
      <point x="221" y="-384"/>
      <point x="373" y="-497"/>
      <point x="478" y="-497" type="qcurve" smooth="yes"/>
      <point x="582" y="-497"/>
      <point x="758" y="-418"/>
      <point x="803" y="-357" type="qcurve"/>
      <point x="746" y="-254" type="line"/>
      <point x="684" y="-301"/>
      <point x="552" y="-347"/>
      <point x="505" y="-347" type="qcurve" smooth="yes"/>
      <point x="453" y="-347"/>
      <point x="393" y="-292"/>
      <point x="393" y="-244" type="qcurve" smooth="yes"/>
      <point x="393" y="-199"/>
      <point x="456" y="-104"/>
      <point x="520" y="-42" type="qcurve" smooth="yes"/>
      <point x="563" y="0" type="line"/>
      <point x="468" y="51" type="line"/>
      <point x="411" y="7" type="line" smooth="yes"/>
      <point x="349" y="-41"/>
      <point x="221" y="-217"/>
    </contour>
  </outline>
</glyph>
<glyph name="ringcomb.case" format="2">
  <advance width="1024"/>
  <outline>
    <contour>
      <point x="295" y="1822" type="qcurve" smooth="yes"/>
      <point x="295" y="1913"/>
      <point x="417" y="2030"/>
      <point x="512" y="2030" type="qcurve" smooth="yes"/>
      <point x="607" y="2030"/>
      <point x="729" y="1913"/>
      <point x="729" y="1822" type="qcurve" smooth="yes"/>
      <point x="729" y="1731"/>
      <point x="607" y="1614"/>
      <point x="512" y="1614" type="qcurve" smooth="yes"/>
      <point x="417" y="1614"/>
      <point x="295" y="1731"/>
    </contour>
    <contour>
      <point x="409" y="1822" type="qcurve" smooth="yes"/>
      <point x="409" y="1776"/>
      <point x="465" y="1719"/>
      <point x="512" y="1719" type="qcurve" smooth="yes"/>
      <point x="562" y="1719"/>
      <point x="615" y="1772"/>
      <point x="615" y="1822" type="qcurve" smooth="yes"/>
      <point x="615" y="1868"/>
      <point x="559" y="1925"/>
      <point x="512" y="1925" type="qcurve" smooth="yes"/>
      <point x="462" y="1925"/>
      <point x="409" y="1872"/>
    </contour>
  </outline>
</glyph>
